<svg width="20" height="16" viewBox="0 0 20 16" fill="none" xmlns="http://www.w3.org/2000/svg">
<path d="M8.10999 7.61951L0.940002 2.52966C1.73 1.25966 3.15 0.409546 4.75 0.409546H14.75C16.35 0.409546 17.76 1.24965 18.56 2.51965L11.41 7.59949C10.4 8.26949 9.09999 8.26951 8.10999 7.61951ZM19.23 4.50964L12.55 9.24963C11.69 9.81963 10.71 10.0995 9.73999 10.0995C8.77999 10.0995 7.81998 9.81964 6.97998 9.25964L0.27002 4.50964C0.26002 4.63964 0.25 4.77955 0.25 4.90955V10.9095C0.25 13.3895 2.27 15.4095 4.75 15.4095H14.75C17.23 15.4095 19.25 13.3895 19.25 10.9095V4.90955C19.25 4.77955 19.24 4.63964 19.23 4.50964Z" fill="#934C4C"/>
</svg>
