<svg width="22" height="22" viewBox="0 0 22 22" fill="none" xmlns="http://www.w3.org/2000/svg">
<path d="M13.1941 16.3645C13.1809 16.3645 13.1544 16.3645 13.1412 16.3645H13.1148C13.1148 16.3645 13.0091 16.3508 12.7183 16.5148L12.5729 16.5968L12.4276 16.5695L10.987 18.0592L9.55972 16.5831L9.44078 16.6105L9.2954 16.5285C9.01787 16.3645 8.89892 16.3781 8.89892 16.3781H8.87249C8.85927 16.3781 8.83284 16.3781 8.81963 16.3781C8.77998 16.8975 8.72712 17.2665 8.58174 17.4989L11.0003 20L13.432 17.4852C13.2866 17.2392 13.2205 16.8702 13.1941 16.3645ZM10.9738 2L8.51566 4.54214L8.81963 6.1549L10.9738 3.92711L13.1544 6.18223L13.4584 4.56948L10.9738 2ZM16.1016 7.30296L15.7976 8.91572L17.7932 10.9795L17.1589 11.6355L17.0003 12.4692C17.1192 12.5376 17.3571 12.6743 17.8461 12.8656L19.6699 10.9795L16.1016 7.30296ZM5.10595 10.0091L6.17644 8.88838L5.87248 7.27563L2.29096 10.9932L4.11476 12.8793C4.61697 12.6879 4.86807 12.5513 4.9738 12.4829L4.82842 11.6902L4.15441 10.9932L5.10595 10.0091Z" fill="#474754"/>
<path d="M7.7357 16.3781L7.90751 17.3212L8.10575 17.2802C8.22469 17.2528 8.30399 16.8428 8.34364 16.0501C8.34364 16.0501 8.37007 15.9954 8.46258 15.9544C8.54188 15.9271 8.77976 15.8861 8.77976 15.8861C8.96478 15.8451 9.20267 15.9134 9.49342 16.0911L9.75774 16.0364L9.74452 15.9681C9.66523 15.5854 9.62558 15.3121 9.61236 15.2574C9.95598 14.9704 10.0485 14.7517 10.0088 14.5194C10.0088 14.5194 10.1146 14.492 10.2071 14.4783L10.1542 14.1777C10.0088 14.0137 9.82382 13.877 9.82382 13.877L7.93394 3.94076L8.05289 3.14805L8.02645 3.01138C7.85465 3.05238 7.74892 2.95671 7.70927 2.72436L7.57711 2.7517C7.14099 2.84737 7.1542 2.82003 6.85024 2.8337C6.0705 3.24372 5.68724 3.55808 5.70045 3.70842C5.72689 3.95443 5.75332 4.14577 5.79297 4.36445L6.652 8.91571C6.77094 9.54441 6.45376 9.95443 5.50222 10.3371C5.2379 10.4328 5.06609 10.5148 5.07931 10.6105L5.44935 12.5786C5.489 12.8246 4.6564 13.2209 2.92511 13.795C2.5815 13.8633 2.37005 13.7403 2.37005 13.7403L2 13.8223L2.56828 16.8018L2.8326 16.7471C2.92511 16.8155 2.92511 16.8975 2.95155 17.0068L3.01763 17.3348C3.36124 17.3622 3.34802 17.4168 3.69164 17.3348C4.15419 17.2255 6.38768 15.6947 6.46698 15.6674C6.53306 15.6401 6.5727 15.6264 6.7313 15.6127C7.1542 15.5854 7.62998 16.0364 7.7357 16.3781ZM6.25552 12.4966C5.83261 12.4282 5.59473 12.2369 5.54186 11.9499L5.30398 10.6788L5.60794 10.5421L5.93834 10.4738C6.38768 10.4601 6.63878 10.6378 6.71808 11.0205L6.78416 11.3485C6.83702 11.6219 6.87667 11.8269 6.58592 11.9362C6.58592 11.9362 6.41411 11.9772 6.24231 11.9772C5.97799 11.9909 5.97799 11.9772 5.67402 11.9089L5.71367 12.0592C5.97799 12.3326 6.652 12.3052 6.87667 12.2642C6.87667 12.2642 6.79738 12.3872 6.62557 12.4419C6.48019 12.4829 6.25552 12.4966 6.25552 12.4966Z" fill="#474754"/>
<path d="M15.2687 15.6128C15.4141 15.6264 15.4669 15.6401 15.533 15.6674C15.6123 15.6948 17.8458 17.2392 18.3083 17.3348C18.652 17.4169 18.6387 17.3622 18.9824 17.3348L19.0484 17.0068C19.0616 16.9112 19.0616 16.8292 19.1674 16.7471L19.4317 16.8018L20 13.8223L19.6167 13.7403C19.6167 13.7403 19.4185 13.877 19.0616 13.795C17.3304 13.2346 16.4845 12.8246 16.5374 12.5786L16.9075 10.6105C16.9207 10.5148 16.7489 10.4465 16.4845 10.3371C15.533 9.96811 15.2158 9.54442 15.3348 8.91571L16.1938 4.36446C16.2334 4.14578 16.2599 3.95444 16.2863 3.70842C16.2995 3.55808 15.9163 3.24373 15.1365 2.83371C14.8193 2.82004 14.8326 2.84738 14.4096 2.76537L14.2775 2.73804C14.2378 2.95672 14.1321 3.05239 13.9603 3.02505L13.9339 3.16173L14.0528 3.95444L12.1629 13.8633C12.1629 13.8633 11.9911 14 11.8325 14.164L11.7797 14.4784C11.8722 14.492 11.9779 14.5194 11.9779 14.5194C11.9383 14.7517 12.0308 14.9704 12.3744 15.2574C12.3612 15.3121 12.3083 15.5718 12.2422 15.9681L12.229 16.0364L12.4933 16.0911C12.7841 15.9134 13.022 15.8451 13.207 15.8861C13.207 15.8861 13.4581 15.9134 13.5242 15.9544C13.6167 15.9954 13.6431 16.0501 13.6431 16.0501C13.6828 16.8428 13.7621 17.2528 13.881 17.2802L14.0793 17.3212L14.2511 16.3781C14.3436 16.0364 14.8326 15.5854 15.2687 15.6128ZM15.718 12.4966C15.718 12.4966 15.4934 12.4829 15.3612 12.4419C15.1894 12.3872 15.1101 12.2642 15.1101 12.2642C15.3348 12.3052 16.0088 12.3326 16.2731 12.0592L16.3127 11.9089C16.0088 11.9772 16.0088 11.9909 15.7445 11.9772C15.5726 11.9636 15.4008 11.9362 15.4008 11.9362C15.1101 11.8269 15.1497 11.6219 15.2026 11.3485L15.2687 11.0205C15.3348 10.6515 15.5991 10.4738 16.0484 10.4738L16.3788 10.5421L16.6828 10.6788L16.4449 11.9499C16.3788 12.2369 16.1409 12.4282 15.718 12.4966Z" fill="#474754"/>
<path d="M4.64319 10.479L5.10609 9.99987C4.89448 10.1094 4.6961 10.2463 4.64319 10.479Z" fill="#474754"/>
<path d="M16.8148 9.98181L17.3438 10.5293C17.3173 10.2419 17.0528 10.0776 16.8148 9.98181Z" fill="#474754"/>
</svg>
