<svg width="22" height="22" viewBox="0 0 22 22" fill="none" xmlns="http://www.w3.org/2000/svg">
<path d="M16.4928 2H5.50718C4.12919 2 3 3.11789 3 4.48211V17.5179C3 18.8821 4.12919 20 5.50718 20H16.4928C17.8708 20 19 18.8821 19 17.5179V4.48211C19 3.11789 17.8708 2 16.4928 2ZM14.2919 15.7747H7.70813C7.2488 15.7747 6.86603 15.3958 6.86603 14.9411C6.86603 14.4863 7.2488 14.1074 7.70813 14.1074H14.2727C14.7321 14.1074 15.1148 14.4863 15.1148 14.9411C15.1148 15.3958 14.7512 15.7747 14.2919 15.7747ZM14.2919 11.8337H7.70813C7.2488 11.8337 6.86603 11.4547 6.86603 11C6.86603 10.5453 7.2488 10.1663 7.70813 10.1663H14.2727C14.7321 10.1663 15.1148 10.5453 15.1148 11C15.1148 11.4547 14.7512 11.8337 14.2919 11.8337ZM14.2919 7.87368H7.70813C7.2488 7.87368 6.86603 7.49474 6.86603 7.04C6.86603 6.58526 7.2488 6.20632 7.70813 6.20632H14.2727C14.7321 6.20632 15.1148 6.58526 15.1148 7.04C15.1148 7.49474 14.7512 7.87368 14.2919 7.87368Z" fill="#474754"/>
</svg>
