<svg width="22" height="22" viewBox="0 0 22 22" fill="none" xmlns="http://www.w3.org/2000/svg">
<path d="M18.0035 16.6236C17.6177 17.102 17.1849 17.5407 16.7118 17.9332L13.8803 15.1057C14.3894 14.754 14.8276 14.3097 15.172 13.7961L18.0035 16.6236Z" fill="#FFBD98"/>
<path d="M15.2938 18.9085C13.9746 19.6248 12.4969 20 10.9953 20C9.49374 20 8.01603 19.6248 6.69683 18.9085L9.72921 15.8804C10.1438 15.9849 10.5697 16.0377 10.9973 16.0377C11.4223 16.0377 11.8456 15.9848 12.2575 15.8804L15.2938 18.9085Z" fill="#FFBD98"/>
<path d="M8.1068 15.1057L5.2792 17.9293C4.80612 17.5382 4.37339 17.1008 3.98749 16.6236L6.81902 13.7961C7.16449 14.3076 7.60097 14.7514 8.1068 15.1057Z" fill="#FFBD98"/>
<path d="M20 10.9881C20.0011 12.457 19.64 13.9035 18.9486 15.2L15.8965 12.1483C15.9853 11.7679 16.0303 11.3787 16.0304 10.9881C16.0313 10.5622 15.9771 10.1378 15.8689 9.72577L18.9052 6.69371C19.6247 8.01098 20.0012 9.48768 20 10.9881Z" fill="#FFBD98"/>
<path d="M17.948 5.27797L15.1204 8.1016C14.7646 7.59745 14.3203 7.16178 13.809 6.81563L16.6406 3.98806C17.1182 4.37359 17.5562 4.80569 17.948 5.27797Z" fill="#FFBD98"/>
<path d="M15.2073 3.04426L12.1552 6.09598C11.3923 5.91764 10.5985 5.91764 9.83564 6.09598L6.77963 3.04819C8.07726 2.35991 9.52415 2 10.9935 2C12.4628 2 13.9097 2.35991 15.2073 3.04819V3.04426Z" fill="#FFBD98"/>
<path d="M8.18154 6.81956C7.66996 7.1653 7.2256 7.60105 6.87013 8.10553L4.04253 5.2819C4.43516 4.80917 4.87306 4.37584 5.35 3.98806L8.18154 6.81956Z" fill="#FFBD98"/>
<path d="M5.96442 10.9881C5.96263 11.3775 6.00758 11.7657 6.09832 12.1443L3.04231 15.1961C2.35054 13.8883 1.99256 12.4303 2.00012 10.9513C2.00767 9.47226 2.38053 8.01797 3.08563 6.7173L6.12195 9.74936C6.01894 10.1543 5.96604 10.5703 5.96442 10.9881Z" fill="#FFBD98"/>
<path d="M14.3528 10.9881C14.3528 11.0747 14.3528 11.1651 14.3528 11.2516C14.3166 11.7162 14.1824 12.1678 13.959 12.5769C13.6606 13.127 13.2147 13.5832 12.6712 13.8944C12.2427 14.1428 11.7633 14.2907 11.2692 14.3269C11.1826 14.3269 11.092 14.3269 11.0053 14.3269C10.9187 14.3269 10.8242 14.3269 10.7336 14.3269C10.2392 14.2894 9.7598 14.1401 9.33162 13.8904C8.78946 13.5802 8.34586 13.1235 8.05172 12.573C7.82836 12.1681 7.6941 11.7203 7.65791 11.2595C7.65791 11.1677 7.65791 11.0773 7.65791 10.9881C7.65702 10.85 7.66624 10.712 7.68547 10.5752C7.73928 10.1346 7.88124 9.70934 8.10292 9.32464C8.41448 8.78189 8.87132 8.33658 9.4222 8.03866C9.78893 7.84092 10.1898 7.71417 10.6036 7.66506C10.742 7.64598 10.8815 7.63678 11.0211 7.63754C11.1529 7.63722 11.2845 7.64642 11.4149 7.66506C11.8295 7.71097 12.2309 7.83792 12.5964 8.03866C13.1479 8.33351 13.6061 8.77613 13.9196 9.31677C14.146 9.70535 14.2894 10.1365 14.341 10.5831C14.3549 10.7176 14.3589 10.853 14.3528 10.9881Z" fill="#FFBD98"/>
</svg>
