<svg width="22" height="22" viewBox="0 0 22 22" fill="none" xmlns="http://www.w3.org/2000/svg">
<path d="M13.146 6.12725C13.146 6.53782 13.2931 6.94838 13.6084 7.2509L15.6887 9.39016H8.03966C7.17809 9.39016 6.50565 10.1032 6.50565 10.9676C6.50565 11.8319 7.19911 12.545 8.03966 12.545H15.7097L13.6294 14.6843C13.02 15.3109 13.02 16.3049 13.6294 16.9316C14.2388 17.5582 15.2054 17.5582 15.8148 16.9316L20.5429 12.0696C21.1523 11.443 21.1523 10.449 20.5429 9.82233L15.7938 5.0036C15.1844 4.37695 14.2178 4.37695 13.6084 5.0036C13.3142 5.32773 13.146 5.7383 13.146 6.12725Z" fill="#575D70"/>
<path d="M8.22879 18.4226C8.22879 17.5366 7.53533 16.8451 6.69477 16.8451H4.08905V5.15486H6.69477C7.55634 5.15486 8.22879 4.44178 8.22879 3.57743C8.22879 2.71309 7.53533 2 6.69477 2H2.53402C1.67245 2 1 2.71309 1 3.57743V18.4226C1 19.3085 1.69346 20 2.53402 20H6.69477C7.55634 20 8.22879 19.2869 8.22879 18.4226Z" fill="#575D70"/>
</svg>
