<svg width="20" height="20" viewBox="0 0 20 20" fill="none" xmlns="http://www.w3.org/2000/svg">
<path d="M17.8846 13.7264L16.8709 12.5685C16.1276 11.7053 15.6996 10.6316 15.6996 9.51583V7.36845C15.6996 4.82107 13.7848 2.67369 11.2167 2.14738V1.13685C11.2167 0.505265 10.6761 0 10.0003 0C9.32448 0 8.78383 0.505265 8.78383 1.13685V2.14738C6.21578 2.67369 4.30101 4.80002 4.30101 7.36845V9.51583C4.30101 10.6316 3.89553 11.7053 3.12962 12.5685L2.11591 13.7264C1.41758 14.5264 2.0258 15.7474 3.12962 15.7474H16.8484C17.9748 15.7474 18.583 14.5264 17.8846 13.7264Z" fill="#888C97"/>
<path d="M10.0003 20C11.6223 20 12.9288 18.7789 12.9288 17.2631H7.07184C7.07184 18.7789 8.3784 20 10.0003 20Z" fill="#888C97"/>
</svg>
