<svg width="22" height="22" viewBox="0 0 22 22" fill="none" xmlns="http://www.w3.org/2000/svg">
<path d="M16.8332 12.7999C16.8332 13.426 17.4166 13.9738 18.0832 13.9738H20.9999V11.6259H18.0832C17.4166 11.6259 16.8332 12.1738 16.8332 12.7999Z" fill="#F1FFDE"/>
<path d="M1 17.4957C1 18.8261 2.16667 20 3.58333 20H18.5833C19.8333 20 20.9167 18.9826 20.9167 17.8087V15.6174H18.0833C16.5 15.6174 15.1667 14.3652 15.1667 12.8783C15.1667 11.3913 16.5 10.1391 18.0833 10.1391H21V7.55652C21 6.53913 20.3333 5.75652 19.3333 5.44348V4.1913C19.3333 3.01739 18.25 2 17 2H3.66667C2.16667 2 1 3.09565 1 4.42609C1 4.58261 1 17.4174 1 17.4957ZM3.58333 3.56522H16.9167C17.25 3.56522 17.5833 3.87826 17.5833 4.1913V5.36522H3.58333C3.08333 5.36522 2.66667 4.97391 2.66667 4.50435C2.66667 3.95652 3.08333 3.56522 3.58333 3.56522Z" fill="#F1FFDE"/>
</svg>
