<svg width="56" height="59" viewBox="0 0 56 59" fill="none" xmlns="http://www.w3.org/2000/svg">
<g filter="url(#filter0_b_2_2173)">
<path d="M48.3553 17.2828V13.5978C48.3588 13.5543 48.3588 13.5075 48.3588 13.464C48.3448 12.7042 48.0452 11.9846 47.4911 11.4391C46.9476 10.9069 46.2089 10.6258 45.4423 10.5956C45.3203 10.5923 45.1984 10.5956 45.0764 10.5956H42.3516C42.5711 10.1873 42.7488 9.74552 42.8603 9.30373C43.0101 8.72471 43.0868 8.10219 43.0485 7.50309C42.9718 6.33501 42.6025 5.16024 41.8603 4.21976C41.6408 3.94196 41.4247 3.66751 41.1669 3.42319C40.9055 3.17552 40.6094 2.95797 40.3132 2.74711C39.8254 2.40238 39.2748 2.1614 38.7069 1.96393C37.5431 1.55895 36.1981 1.54222 35.0099 1.84344C34.4314 1.99071 33.853 2.22499 33.3443 2.52621C32.8565 2.8174 32.3861 3.16882 31.9923 3.58049C31.4348 3.00482 30.7728 2.52956 30.0201 2.21495C29.6717 2.07103 29.3302 1.93046 28.9644 1.84009C28.5915 1.74973 28.2047 1.70287 27.8249 1.66271C27.1977 1.59912 26.5566 1.6694 25.9433 1.78989C25.351 1.90369 24.7691 2.13128 24.2429 2.40572C23.7203 2.67682 23.2324 3.03829 22.8143 3.43992C22.3962 3.84155 22.0199 4.31347 21.7376 4.81216C21.4519 5.31755 21.2149 5.87983 21.093 6.44546C20.8247 7.7039 20.9292 8.97908 21.4484 10.1639C21.5146 10.3112 21.5843 10.4551 21.6575 10.5956H18.6051C18.5981 10.5956 18.5946 10.5956 18.5877 10.5956C18.5737 10.5956 18.5598 10.5956 18.5493 10.5956C18.5389 10.5956 18.5319 10.5956 18.525 10.5956C17.9953 10.6157 17.4517 10.7563 17.0127 11.0475C16.4204 11.4424 16.0336 11.9378 15.7862 12.5804C15.6573 12.9184 15.6364 13.2832 15.6364 13.6413V18.3103C15.6398 19.0767 15.936 19.8198 16.504 20.3653C16.842 20.69 17.2531 20.9242 17.6991 21.0581V30.0044C17.6991 30.4998 17.6957 30.9951 17.6991 31.4905C17.7026 31.795 17.741 32.1197 17.8559 32.4075C18.0302 32.8393 18.2462 33.2409 18.6086 33.5589C18.9779 33.8802 19.3438 34.0843 19.8142 34.2383C20.1278 34.3421 20.4728 34.3621 20.8038 34.3621H42.6931C43.1983 34.3621 43.7245 34.3889 44.2088 34.2149C44.6618 34.0509 45.0764 33.84 45.4144 33.4953C45.7559 33.1506 45.9615 32.7891 46.1287 32.3439C46.2298 32.0728 46.2577 31.7683 46.2611 31.4838V21.0615C46.4145 21.0146 46.5643 20.9544 46.7281 20.8874C47.2124 20.6833 47.5783 20.3051 47.8779 19.8967C48.188 19.475 48.3204 18.9529 48.3518 18.4442C48.3762 18.0593 48.3553 17.6677 48.3553 17.2828ZM33.7415 7.78757C33.7415 7.7608 33.7415 7.73402 33.7415 7.7039C33.745 7.60684 33.7485 7.50978 33.7555 7.41272C33.8008 7.17509 33.8705 6.9408 33.9541 6.70987C34.0656 6.48897 34.1945 6.27477 34.3409 6.07395C34.5046 5.89322 34.6788 5.72252 34.867 5.56857C35.0796 5.42799 35.3026 5.30081 35.5325 5.19371C35.7695 5.11004 36.0134 5.04645 36.2608 5.00294C36.5221 4.98285 36.7869 4.98285 37.0483 5.00294C37.2957 5.04645 37.5431 5.11338 37.78 5.19371C37.78 5.19371 37.78 5.19371 37.7835 5.19371C38.0135 5.30081 38.2365 5.42465 38.4455 5.56522C38.6337 5.72252 38.8114 5.88987 38.9717 6.0706C39.1145 6.26807 39.2435 6.47893 39.3515 6.69648C39.4421 6.93076 39.5083 7.17509 39.5571 7.42276C39.578 7.67043 39.578 7.92145 39.5571 8.16912C39.5118 8.4101 39.4421 8.64773 39.355 8.87532C39.2435 9.09957 39.1145 9.31042 38.9647 9.51459C38.8009 9.69867 38.6232 9.86936 38.4316 10.0267C38.226 10.1639 38.0065 10.2877 37.78 10.3915C37.78 10.3915 37.78 10.3915 37.7765 10.3915C37.773 10.3915 37.7765 10.3915 37.773 10.3915C37.5396 10.4718 37.2991 10.5354 37.0552 10.5823C36.9542 10.5889 36.8566 10.5956 36.7556 10.599C36.5221 10.6057 36.2887 10.6023 36.0587 10.6023H33.738L33.7415 7.78757ZM30.3512 25.4091V19.7562C30.3616 19.6792 30.3686 19.6022 30.3686 19.5252V13.9426C30.8773 13.9426 31.386 13.9426 31.8948 13.9426H33.6196V19.3746C33.6161 19.4215 33.6126 19.4717 33.6126 19.5185V25.2585C33.6126 25.3388 33.6126 25.4225 33.6161 25.5062H30.3512C30.3512 25.4727 30.3512 25.4426 30.3512 25.4091ZM24.4276 7.40603C24.4729 7.16839 24.5426 6.93411 24.6262 6.70317C24.7377 6.48562 24.8632 6.27477 25.0095 6.07395C25.1733 5.88987 25.3545 5.71583 25.5461 5.55852C25.7517 5.4213 25.9677 5.30081 26.1907 5.19706C26.4381 5.11004 26.6925 5.0431 26.9538 4.99624C27.2117 4.97616 27.473 4.97616 27.7309 4.99624C27.9783 5.03975 28.2222 5.10669 28.4626 5.18702C28.6961 5.29412 28.9191 5.4213 29.1316 5.56187C29.3198 5.71583 29.494 5.88652 29.6543 6.06726C29.8006 6.27142 29.933 6.48562 30.0445 6.70987C30.1282 6.93076 30.1944 7.15835 30.2397 7.38929C30.2501 7.52317 30.2571 7.6537 30.2571 7.79092V10.599H28.0828C27.8284 10.599 27.5741 10.6023 27.3197 10.599C27.1908 10.5956 27.0618 10.5923 26.9329 10.5823C26.689 10.5387 26.4486 10.4752 26.2151 10.3948C25.9817 10.2877 25.7552 10.1605 25.5426 10.0166C25.3545 9.86267 25.1802 9.69532 25.0234 9.51459C24.8771 9.31042 24.7447 9.09622 24.6332 8.87532C24.6332 8.87532 24.6332 8.87532 24.6332 8.87198C24.6332 8.87198 24.6332 8.87198 24.6332 8.86863C24.5461 8.64104 24.4799 8.40341 24.4311 8.16578C24.4032 7.90806 24.4032 7.65704 24.4276 7.40603ZM19.7759 17.8518C19.5947 17.8518 19.4135 17.8585 19.2288 17.8618C19.187 17.8652 19.1487 17.8719 19.1103 17.8819V14.0363C19.1103 14.0062 19.1103 13.9727 19.1103 13.9426H26.8772V17.8518H19.7759ZM42.714 31.0219H23.4171C22.6714 31.0219 21.9258 31.0253 21.1801 31.0253C21.1836 30.8077 21.1906 30.5935 21.1906 30.3793V21.1953H26.8737V25.6903C26.8737 25.8442 26.8702 25.9948 26.8841 26.1488C26.9469 26.8583 27.2152 27.5344 27.7622 28.0365C28.3093 28.5385 28.9922 28.8062 29.7449 28.8498C30.3686 28.8866 31.0028 28.8531 31.6265 28.8531H34.0098C34.8391 28.8531 35.6127 28.592 36.212 28.0331C36.8009 27.4876 37.097 26.7111 37.097 25.9346V21.192H42.7906V30.1015C42.7906 30.4094 42.7941 30.714 42.7941 31.0219C42.7662 31.0219 42.7418 31.0219 42.714 31.0219ZM44.7559 17.8585C44.6478 17.8551 44.5468 17.8551 44.4423 17.8551H37.1005V13.9459H44.2088C44.4283 13.9459 44.6513 13.9359 44.8743 13.9359V17.8016C44.8743 17.8216 44.8743 17.8451 44.8743 17.8652C44.836 17.8618 44.7942 17.8618 44.7559 17.8585Z" fill="#FF94C1"/>
<rect x="37" y="23" width="16" height="16" rx="6" fill="#EA639C"/>
<path d="M45.21 35.15C46.76 35.15 48.08 34.31 48.08 32.8V32.78C48.08 31.68 47.4 31.07 46.35 30.79L47.92 29.61V28H42.54V29.82H45.14L43.6 31.04L43.91 32.08H44.9C45.52 32.08 45.82 32.3 45.82 32.64V32.66C45.82 32.99 45.54 33.22 45.02 33.22C44.44 33.22 43.89 32.95 43.37 32.46L41.98 33.89C42.75 34.68 43.77 35.15 45.21 35.15Z" fill="white"/>
</g>
<defs>
<filter id="filter0_b_2_2173" x="-7" y="-7" width="70" height="73" filterUnits="userSpaceOnUse" color-interpolation-filters="sRGB">
<feFlood flood-opacity="0" result="BackgroundImageFix"/>
<feGaussianBlur in="BackgroundImage" stdDeviation="3.5"/>
<feComposite in2="SourceAlpha" operator="in" result="effect1_backgroundBlur_2_2173"/>
<feBlend mode="normal" in="SourceGraphic" in2="effect1_backgroundBlur_2_2173" result="shape"/>
</filter>
</defs>
</svg>
