<svg width="63" height="17" viewBox="0 0 63 17" fill="none" xmlns="http://www.w3.org/2000/svg">
<path d="M9.01588 16.7773H8.5619L7.73145 15.497C7.38451 15.9572 6.96375 16.3246 6.46917 16.5992C5.97459 16.8664 5.42465 17 4.81935 17H3.9889C3.45003 17 2.94069 16.8998 2.46088 16.6994C1.98845 16.4916 1.57507 16.2095 1.22074 15.8533C0.866418 15.497 0.585912 15.0814 0.379222 14.6064C0.179915 14.1313 0.0802612 13.6229 0.0802612 13.0811V4.50859C0.0802612 3.96678 0.179915 3.45836 0.379222 2.98335C0.585912 2.50833 0.866418 2.0927 1.22074 1.73644C1.57507 1.38017 1.98845 1.10185 2.46088 0.90145C2.94069 0.693631 3.45003 0.589722 3.9889 0.589722H5.11831C5.65718 0.589722 6.16283 0.693631 6.63526 0.90145C7.10769 1.10185 7.52107 1.38017 7.8754 1.73644C8.22972 2.0927 8.50654 2.50833 8.70584 2.98335C8.91253 3.45836 9.01588 3.96678 9.01588 4.50859V5.15431L7.58751 5.37697V4.50859C7.58751 4.15233 7.52107 3.82204 7.3882 3.51774C7.25533 3.20601 7.07448 2.9351 6.84564 2.70502C6.61681 2.47493 6.34737 2.29309 6.03734 2.15949C5.73469 2.0259 5.4062 1.9591 5.05187 1.9591H4.05534C3.70101 1.9591 3.36883 2.0259 3.0588 2.15949C2.75615 2.29309 2.48671 2.47493 2.2505 2.70502C2.02166 2.9351 1.84081 3.20601 1.70794 3.51774C1.57507 3.82204 1.50863 4.15233 1.50863 4.50859V13.0811C1.50863 13.4374 1.57507 13.7714 1.70794 14.0831C1.84081 14.3874 2.02166 14.6583 2.2505 14.8958C2.48671 15.1259 2.75615 15.3077 3.0588 15.4413C3.36883 15.5749 3.70101 15.6417 4.05534 15.6417H5.05187C5.4062 15.6417 5.73469 15.5749 6.03734 15.4413C6.34737 15.3077 6.61681 15.1259 6.84564 14.8958C7.07448 14.6583 7.25533 14.3874 7.3882 14.0831C7.52107 13.7714 7.58751 13.4374 7.58751 13.0811V9.7523H5.05187V8.38292H9.01588V16.7773Z" fill="url(#paint0_linear_399_28)"/>
<path d="M19.7687 16.7773H19.3148L18.4843 15.497C18.1374 15.9572 17.7166 16.3246 17.222 16.5992C16.7275 16.8664 16.1775 17 15.5722 17H14.7418C14.2029 17 13.6935 16.8998 13.2137 16.6994C12.7413 16.4916 12.3279 16.2095 11.9736 15.8533C11.6193 15.497 11.3388 15.0814 11.1321 14.6064C10.9328 14.1313 10.8331 13.6229 10.8331 13.0811V4.50859C10.8331 3.96678 10.9328 3.45836 11.1321 2.98335C11.3388 2.50833 11.6193 2.0927 11.9736 1.73644C12.3279 1.38017 12.7413 1.10185 13.2137 0.90145C13.6935 0.693631 14.2029 0.589722 14.7418 0.589722H15.8712C16.41 0.589722 16.9157 0.693631 17.3881 0.90145C17.8605 1.10185 18.2739 1.38017 18.6283 1.73644C18.9826 2.0927 19.2594 2.50833 19.4587 2.98335C19.6654 3.45836 19.7687 3.96678 19.7687 4.50859V5.15431L18.3404 5.37697V4.50859C18.3404 4.15233 18.2739 3.82204 18.1411 3.51774C18.0082 3.20601 17.8273 2.9351 17.5985 2.70502C17.3697 2.47493 17.1002 2.29309 16.7902 2.15949C16.4875 2.0259 16.1591 1.9591 15.8047 1.9591H14.8082C14.4539 1.9591 14.1217 2.0259 13.8117 2.15949C13.509 2.29309 13.2396 2.47493 13.0034 2.70502C12.7745 2.9351 12.5937 3.20601 12.4608 3.51774C12.3279 3.82204 12.2615 4.15233 12.2615 4.50859V13.0811C12.2615 13.4374 12.3279 13.7714 12.4608 14.0831C12.5937 14.3874 12.7745 14.6583 13.0034 14.8958C13.2396 15.1259 13.509 15.3077 13.8117 15.4413C14.1217 15.5749 14.4539 15.6417 14.8082 15.6417H15.8047C16.1591 15.6417 16.4875 15.5749 16.7902 15.4413C17.1002 15.3077 17.3697 15.1259 17.5985 14.8958C17.8273 14.6583 18.0082 14.3874 18.1411 14.0831C18.2739 13.7714 18.3404 13.4374 18.3404 13.0811V9.7523H15.8047V8.38292H19.7687V16.7773Z" fill="url(#paint1_linear_399_28)"/>
<path d="M30.7541 12.8584C30.7541 13.4003 30.6508 13.9087 30.4441 14.3837C30.2448 14.8587 29.968 15.2743 29.6136 15.6306C29.2593 15.9869 28.8422 16.2689 28.3624 16.4767C27.89 16.6771 27.3843 16.7773 26.8455 16.7773H21.8185V0.812385H26.8455C27.3843 0.812385 27.89 0.916294 28.3624 1.12411C28.8422 1.32451 29.2593 1.60284 29.6136 1.9591C29.968 2.31536 30.2448 2.73471 30.4441 3.21714C30.6508 3.69216 30.7541 4.20057 30.7541 4.74238V12.8584ZM29.3257 4.74238C29.3257 4.38612 29.2593 4.05584 29.1264 3.75153C28.9936 3.43981 28.809 3.1689 28.5728 2.93882C28.344 2.70131 28.0745 2.51576 27.7645 2.38216C27.4619 2.24856 27.1334 2.18176 26.779 2.18176H23.2469V15.4079H26.779C27.1334 15.4079 27.4619 15.3411 27.7645 15.2075C28.0745 15.0739 28.344 14.8921 28.5728 14.662C28.809 14.4319 28.9936 14.1647 29.1264 13.8604C29.2593 13.5487 29.3257 13.2147 29.3257 12.8584V4.74238Z" fill="url(#paint2_linear_399_28)"/>
<path d="M40.2558 16.7773L35.9485 9.96383H33.9887V16.7773H32.5603V0.812385H37.5983C38.1372 0.812385 38.6429 0.916294 39.1153 1.12411C39.5877 1.32451 40.0011 1.60284 40.3554 1.9591C40.7097 2.31536 40.9866 2.73471 41.1859 3.21714C41.3926 3.69216 41.4959 4.20057 41.4959 4.74238V6.03383C41.4959 6.57564 41.3926 7.08777 41.1859 7.5702C40.9866 8.04522 40.7097 8.46086 40.3554 8.81712C40.0011 9.17338 39.5877 9.45542 39.1153 9.66323C38.6429 9.86363 38.1372 9.96383 37.5983 9.96383L41.9056 16.7773H40.2558ZM40.0675 4.74238C40.0675 4.38612 40.0011 4.05584 39.8682 3.75153C39.7354 3.43981 39.5545 3.1689 39.3257 2.93882C39.0968 2.70131 38.8274 2.51576 38.5174 2.38216C38.2147 2.24856 37.8862 2.18176 37.5319 2.18176H33.9887V8.59445H37.5319C37.8862 8.59445 38.2147 8.52765 38.5174 8.39406C38.8274 8.26046 39.0968 8.07862 39.3257 7.84853C39.5545 7.61102 39.7354 7.34012 39.8682 7.03581C40.0011 6.72408 40.0675 6.39009 40.0675 6.03383V4.74238Z" fill="url(#paint3_linear_399_28)"/>
<path d="M51.983 13.0811C51.983 13.6229 51.8797 14.1313 51.673 14.6064C51.4737 15.0814 51.1969 15.497 50.8425 15.8533C50.4882 16.2095 50.0748 16.4916 49.6024 16.6994C49.13 16.8998 48.6243 17 48.0854 17H46.956C46.4172 17 45.9078 16.8998 45.428 16.6994C44.9556 16.4916 44.5422 16.2095 44.1879 15.8533C43.8336 15.497 43.553 15.0814 43.3464 14.6064C43.1471 14.1313 43.0474 13.6229 43.0474 13.0811V4.50859C43.0474 3.96678 43.1471 3.45836 43.3464 2.98335C43.553 2.50833 43.8336 2.0927 44.1879 1.73644C44.5422 1.38017 44.9556 1.10185 45.428 0.90145C45.9078 0.693631 46.4172 0.589722 46.956 0.589722H48.0854C48.6243 0.589722 49.13 0.693631 49.6024 0.90145C50.0748 1.10185 50.4882 1.38017 50.8425 1.73644C51.1969 2.0927 51.4737 2.50833 51.673 2.98335C51.8797 3.45836 51.983 3.96678 51.983 4.50859V13.0811ZM50.5546 4.50859C50.5546 4.15233 50.4882 3.82204 50.3553 3.51774C50.2225 3.20601 50.0416 2.9351 49.8128 2.70502C49.5839 2.47493 49.3145 2.29309 49.0045 2.15949C48.7018 2.0259 48.3733 1.9591 48.019 1.9591H47.0225C46.6681 1.9591 46.336 2.0259 46.0259 2.15949C45.7233 2.29309 45.4538 2.47493 45.2176 2.70502C44.9888 2.9351 44.8079 3.20601 44.6751 3.51774C44.5422 3.82204 44.4758 4.15233 44.4758 4.50859V13.0811C44.4758 13.4374 44.5422 13.7714 44.6751 14.0831C44.8079 14.3874 44.9888 14.6583 45.2176 14.8958C45.4538 15.1259 45.7233 15.3077 46.0259 15.4413C46.336 15.5749 46.6681 15.6417 47.0225 15.6417H48.019C48.3733 15.6417 48.7018 15.5749 49.0045 15.4413C49.3145 15.3077 49.5839 15.1259 49.8128 14.8958C50.0416 14.6583 50.2225 14.3874 50.3553 14.0831C50.4882 13.7714 50.5546 13.4374 50.5546 13.0811V4.50859Z" fill="url(#paint4_linear_399_28)"/>
<path d="M62.9684 6.72408C62.9684 7.2659 62.8651 7.77431 62.6584 8.24933C62.4591 8.72434 62.1822 9.13998 61.8279 9.49624C61.4736 9.8525 61.0565 10.1345 60.5767 10.3424C60.1043 10.5428 59.5986 10.643 59.0598 10.643H55.4611V16.7773H54.0328V0.812385H59.0598C59.5986 0.812385 60.1043 0.916294 60.5767 1.12411C61.0565 1.32451 61.4736 1.60284 61.8279 1.9591C62.1822 2.31536 62.4591 2.73471 62.6584 3.21714C62.8651 3.69216 62.9684 4.20057 62.9684 4.74238V6.72408ZM61.54 4.74238C61.54 4.38612 61.4736 4.05584 61.3407 3.75153C61.2078 3.43981 61.0233 3.1689 60.7871 2.93882C60.5583 2.70131 60.2888 2.51576 59.9788 2.38216C59.6761 2.24856 59.3476 2.18176 58.9933 2.18176H55.4611V9.27357H58.9933C59.3476 9.27357 59.6761 9.20678 59.9788 9.07318C60.2888 8.93958 60.5583 8.75774 60.7871 8.52765C61.0233 8.29757 61.2078 8.03037 61.3407 7.72607C61.4736 7.41434 61.54 7.08035 61.54 6.72408V4.74238Z" fill="url(#paint5_linear_399_28)"/>
<defs>
<linearGradient id="paint0_linear_399_28" x1="12.8349" y1="16.9959" x2="17.0693" y2="-3.68866" gradientUnits="userSpaceOnUse">
<stop stop-color="#FFD098"/>
<stop offset="1" stop-color="#FF8064"/>
</linearGradient>
<linearGradient id="paint1_linear_399_28" x1="12.8349" y1="16.9959" x2="17.0693" y2="-3.68866" gradientUnits="userSpaceOnUse">
<stop stop-color="#FFD098"/>
<stop offset="1" stop-color="#FF8064"/>
</linearGradient>
<linearGradient id="paint2_linear_399_28" x1="12.8349" y1="16.9959" x2="17.0693" y2="-3.68866" gradientUnits="userSpaceOnUse">
<stop stop-color="#FFD098"/>
<stop offset="1" stop-color="#FF8064"/>
</linearGradient>
<linearGradient id="paint3_linear_399_28" x1="12.8349" y1="16.9959" x2="17.0693" y2="-3.68866" gradientUnits="userSpaceOnUse">
<stop stop-color="#FFD098"/>
<stop offset="1" stop-color="#FF8064"/>
</linearGradient>
<linearGradient id="paint4_linear_399_28" x1="12.8349" y1="16.9959" x2="17.0693" y2="-3.68866" gradientUnits="userSpaceOnUse">
<stop stop-color="#FFD098"/>
<stop offset="1" stop-color="#FF8064"/>
</linearGradient>
<linearGradient id="paint5_linear_399_28" x1="12.8349" y1="16.9959" x2="17.0693" y2="-3.68866" gradientUnits="userSpaceOnUse">
<stop stop-color="#FFD098"/>
<stop offset="1" stop-color="#FF8064"/>
</linearGradient>
</defs>
</svg>
