<svg width="54" height="54" viewBox="0 0 54 54" fill="none" xmlns="http://www.w3.org/2000/svg">
<path d="M52.8526 23.3076C52.7326 22.7124 52.1977 22.2433 51.5904 22.2433C44.2158 22.2433 36.8412 22.2433 29.4666 22.3086C28.9536 22.3739 28.5047 22.7004 28.2482 23.1574C25.3807 28.1527 25.3626 28.1843 27.6904 33.4371C27.7193 33.5022 27.7651 33.5752 27.7853 33.6435C27.8209 33.7637 27.9185 33.8382 28.0159 33.917C28.4268 34.2494 28.8825 34.7132 29.3383 34.7132C31.9676 34.7785 34.5968 34.7785 37.2901 34.7785H38.4802C39.2621 34.7785 39.7272 35.5747 39.278 36.2148C35.6869 40.0668 31.2622 42.2865 26.0037 42.0254C20.5439 41.7698 17.0468 38.3189 14.0173 34.2004C13.8852 34.0208 13.7373 33.853 13.5867 33.6886C11.9274 31.876 11.5479 29.3851 10.3208 29.0747C9.54062 28.8774 7.32933 27.9079 4.92088 26.8886C2.58283 25.8992 0.0350657 27.4383 0.330961 29.9598C1.10278 36.5369 4.93978 44.3462 12.5371 49.1417C22.2844 55.4093 34.7892 54.5605 43.7028 47.1831C51.4105 40.6438 54.2748 30.3618 52.8526 23.3076ZM19.7834 14.5394C21.8355 13.6907 24.0158 12.9726 26.1961 12.842C31.0386 12.5204 35.017 14.2222 38.2022 17.6224C39.4691 18.9747 41.3954 19.6158 43.1231 18.9458L47.1417 17.3872C49.2316 16.5766 50.2723 14.1846 49.1019 12.2728C44.2161 4.292 35.2605 -0.525022 25.619 0.0456743C18.3205 0.417202 12.2934 3.20501 7.4688 8.33894C5.70824 10.2124 6.65493 13.0379 9.03962 13.9985C9.6002 14.2243 10.1461 14.4649 10.6774 14.7353C13.8196 16.3022 16.7053 15.8452 19.7834 14.5394ZM13.3066 19.0443C13.5542 19.1451 13.9165 18.8955 14.2459 18.6864C14.4062 18.5847 14.493 18.3916 14.4477 18.2072C14.4158 18.0772 14.3222 17.9711 14.1973 17.923C10.8651 16.6403 7.53279 15.2974 4.20053 14.0171C3.91223 13.9193 3.51591 14.0781 3.14647 14.2187C2.94162 14.2967 2.80526 14.5017 2.82669 14.7198C2.84337 14.8897 2.95358 15.0359 3.11229 15.0987C6.49208 16.4356 9.92982 17.771 13.3066 19.0443ZM0.930048 23.4185C4.26444 24.7636 7.66055 26.1087 11.0578 27.3921C11.1792 27.4379 11.3159 27.4142 11.4148 27.3303C11.5452 27.2197 11.5788 27.0321 11.5098 26.8757C11.3277 26.4629 11.1846 26.0063 10.8697 25.8994C7.59545 24.5532 4.1975 23.2699 0.858027 21.9878C0.741955 21.9432 0.611668 21.9563 0.50677 22.023C0.318122 22.1431 0.266508 22.3978 0.368556 22.5967C0.556185 22.9626 0.688547 23.3202 0.930048 23.4185ZM2.66148 17.9997C5.61132 19.1096 8.6253 20.2847 11.5751 21.4599C12.8045 21.9963 12.0969 20.1618 10.8457 19.6784L4.36792 17.1755C3.11677 16.6921 1.39133 17.5686 2.66148 17.9997ZM1.57132 20.6112C4.84308 21.9564 8.11485 23.2387 11.3866 24.4582C11.503 24.5016 11.6338 24.4786 11.7286 24.3982C11.8607 24.2861 11.8896 24.092 11.8179 23.9342C11.6416 23.5458 11.498 23.0659 11.1904 22.9615C7.96605 21.6742 4.74172 20.4503 1.57884 19.1648C1.492 19.1295 1.39461 19.1307 1.30869 19.1682C1.13433 19.2443 1.05155 19.4474 1.1049 19.63C1.22629 20.0456 1.32003 20.5088 1.57132 20.6112Z" fill="url(#paint0_linear_399_26)"/>
<defs>
<linearGradient id="paint0_linear_399_26" x1="10.9185" y1="53.32" x2="44.9765" y2="10.1429" gradientUnits="userSpaceOnUse">
<stop stop-color="#FFD098"/>
<stop offset="1" stop-color="#FF8064"/>
</linearGradient>
</defs>
</svg>
