<svg width="18" height="18" viewBox="0 0 18 18" fill="none" xmlns="http://www.w3.org/2000/svg">
<path d="M2.86363 12.8844H5.07272C5.23957 12.8843 5.40064 12.9443 5.52545 13.0531L8.78999 15.9019C8.98737 16.0674 9.22825 16.1749 9.48499 16.2121C9.74174 16.2493 10.004 16.2146 10.2416 16.1122C10.4831 16.0059 10.6879 15.8327 10.8307 15.6139C10.9735 15.395 11.0481 15.1399 11.0454 14.88V2.85272C11.0481 2.59277 10.9735 2.33771 10.8307 2.11883C10.6879 1.89995 10.4831 1.72677 10.2416 1.62053C10.0041 1.51287 9.73977 1.4758 9.48112 1.51387C9.22246 1.55195 8.9808 1.66352 8.7859 1.83482L5.52272 4.67957C5.39862 4.78773 5.23863 4.84773 5.07272 4.84833H2.86363C2.32114 4.84833 1.80087 5.05999 1.41728 5.43676C1.03368 5.81352 0.818176 6.32452 0.818176 6.85734V10.8753C0.818176 11.4082 1.03368 11.9192 1.41728 12.2959C1.80087 12.6727 2.32114 12.8844 2.86363 12.8844Z" fill="#808699"/>
<path d="M12.7711 9.49317C12.692 9.53436 12.6219 9.59046 12.5649 9.65826C12.5078 9.72606 12.4649 9.80423 12.4387 9.8883C12.4124 9.97238 12.4032 10.0607 12.4117 10.1483C12.4202 10.2358 12.4462 10.3209 12.4881 10.3986C12.5747 10.5538 12.7195 10.6698 12.8918 10.7219C13.064 10.7739 13.2502 10.7578 13.4106 10.6771C13.729 10.4896 13.9926 10.2242 14.1756 9.90686C14.3585 9.58952 14.4547 9.23105 14.4547 8.86635C14.4547 8.50166 14.3585 8.14319 14.1756 7.82585C13.9926 7.50851 13.729 7.24313 13.4106 7.05556C13.2508 6.97227 13.0638 6.95475 12.8908 7.00687C12.7178 7.05899 12.5729 7.17647 12.4881 7.33348C12.4033 7.49048 12.3855 7.67415 12.4385 7.84407C12.4916 8.01399 12.6112 8.15624 12.7711 8.23954C12.8703 8.31244 12.9508 8.40705 13.0063 8.51586C13.0617 8.62466 13.0906 8.74467 13.0906 8.86635C13.0906 8.98804 13.0617 9.10805 13.0063 9.21685C12.9508 9.32566 12.8703 9.42027 12.7711 9.49317Z" fill="#808699"/>
<path d="M14.777 4.63336C14.698 4.59066 14.6112 4.56377 14.5216 4.55424C14.432 4.5447 14.3414 4.55272 14.2549 4.57782C14.1685 4.60292 14.088 4.6446 14.018 4.70046C13.9481 4.75632 13.8901 4.82524 13.8475 4.90324C13.8049 4.98124 13.7784 5.06678 13.7696 5.15489C13.7609 5.243 13.77 5.33195 13.7964 5.41658C13.8229 5.50121 13.8662 5.57985 13.9238 5.64795C13.9814 5.71605 14.0522 5.77225 14.132 5.81331C14.6639 6.12922 15.1004 6.57858 15.3968 7.11517C15.6931 7.65176 15.8386 8.25621 15.8182 8.86633C15.8386 9.47645 15.6931 10.0809 15.3968 10.6175C15.1004 11.1541 14.6639 11.6034 14.132 11.9193C13.9728 12.0032 13.854 12.1458 13.8017 12.3157C13.7494 12.4856 13.7679 12.6689 13.8531 12.8254C13.9408 12.98 14.0862 13.095 14.2586 13.1461C14.431 13.1972 14.617 13.1804 14.777 13.0993C15.5253 12.668 16.1428 12.0482 16.5656 11.304C16.9883 10.5599 17.2011 9.7183 17.1818 8.86633C17.2011 8.01436 16.9883 7.17279 16.5656 6.42861C16.1428 5.68444 15.5253 5.06466 14.777 4.63336Z" fill="#808699"/>
</svg>
