<svg width="20" height="20" viewBox="0 0 20 20" fill="none" xmlns="http://www.w3.org/2000/svg">
<path d="M15.5508 1.81818H4.44919C2.97326 1.81818 1.81818 2.97326 1.81818 4.38502V15.5508C1.81818 16.9626 2.97326 18.1818 4.44919 18.1818H10.6096V11.8289H8.49197V9.39037H10.6096V7.52941C10.6096 5.41176 11.893 4.25668 13.754 4.25668C14.6524 4.25668 15.4225 4.32085 15.6791 4.38502V6.56684H14.3957C13.369 6.56684 13.1765 7.08021 13.1765 7.78609V9.39037H15.615L15.2941 11.8289H13.1765V18.1818H15.615C17.0267 18.1818 18.1818 17.0267 18.1818 15.5508V4.38502C18.1818 2.97326 17.0267 1.81818 15.5508 1.81818Z" fill="#575D70"/>
</svg>
