<svg width="20" height="20" viewBox="0 0 20 20" fill="none" xmlns="http://www.w3.org/2000/svg">
<path fill-rule="evenodd" clip-rule="evenodd" d="M18.1623 14.6364C18.1039 15.2792 18.0065 15.7273 17.7727 16.1948C17.3247 17.1104 16.526 17.7727 15.5325 18.026C15.1818 18.1234 14.8506 18.1623 14.3052 18.1818C14.1104 18.1818 12.0455 18.1818 9.98052 18.1818C7.91558 18.1818 5.85064 18.1818 5.65584 18.1623C5.16883 18.1429 4.7987 18.0844 4.46753 18.0065C3.4935 17.7532 2.67532 17.0714 2.22727 16.1753C1.9935 15.7078 1.8961 15.2792 1.83766 14.5974C1.81818 14.4026 1.81818 13.4091 1.81818 10C1.81818 8.85064 1.81818 7.9935 1.81818 7.33116C1.81818 5.38311 1.83766 5.30519 1.8961 4.91558C2.01298 4.13636 2.32467 3.45454 2.85064 2.92857C3.14285 2.63636 3.41558 2.42207 3.78571 2.24675C4.25324 2.01298 4.70129 1.8961 5.40259 1.83766C5.5974 1.81818 6.5909 1.81818 10 1.81818H12.6688C14.6169 1.81818 14.6948 1.83766 15.0844 1.8961C15.8636 2.01298 16.526 2.32467 17.0714 2.85064C17.3831 3.14285 17.5779 3.43506 17.7727 3.80519C18.0065 4.27272 18.1234 4.72077 18.1623 5.36363C18.1818 5.49999 18.1818 7.74025 18.1818 10C18.1818 12.2403 18.1818 14.4805 18.1623 14.6364ZM16 7.50649C15.961 6.86363 15.8636 6.41558 15.7273 6.04545C15.5714 5.65584 15.3571 5.30519 15.026 4.97402C14.6948 4.64285 14.3636 4.42857 13.9545 4.27272C13.5649 4.11688 13.1364 4.01948 12.4935 3.99999C11.8506 3.96103 11.6364 3.96103 10 3.96103C8.36363 3.96103 8.14935 3.96103 7.50649 3.99999C6.86363 4.03896 6.41558 4.13636 6.04545 4.27272C5.65584 4.42857 5.30519 4.64285 4.97402 4.97402C4.64285 5.30519 4.42857 5.65584 4.27272 6.04545C4.11688 6.43506 4.01948 6.86363 3.99999 7.50649C3.96103 8.14935 3.96103 8.36363 3.96103 10C3.96103 11.6364 3.96103 11.8506 3.99999 12.4935C4.03896 13.1364 4.13636 13.5844 4.27272 13.9545C4.42857 14.3442 4.64285 14.6948 4.97402 15.026C5.30519 15.3571 5.65584 15.5714 6.04545 15.7273C6.43506 15.8831 6.86363 15.9805 7.50649 16C8.14935 16.039 8.36363 16.039 10 16.039C11.6364 16.039 11.8506 16.039 12.4935 16C13.1364 15.961 13.5844 15.8636 13.9545 15.7273C14.3442 15.5714 14.6948 15.3571 15.026 15.026C15.3571 14.6948 15.5714 14.3442 15.7273 13.9545C15.8831 13.5649 15.9805 13.1364 16 12.4935C16.039 11.8506 16.039 11.6364 16.039 10C16.039 8.36363 16.039 8.14935 16 7.50649ZM14.7143 13.5649C14.5974 13.8377 14.4805 14.0519 14.2662 14.2662C14.0519 14.4805 13.8571 14.6169 13.5649 14.7143C13.3506 14.7922 13.039 14.8896 12.4351 14.9286C11.7922 14.948 11.5974 14.9675 10 14.9675C8.38311 14.9675 8.18831 14.9675 7.56493 14.9286C6.98051 14.9091 6.64935 14.8117 6.43506 14.7143C6.16233 14.5974 5.94805 14.4805 5.73376 14.2662C5.51948 14.0519 5.38311 13.8571 5.28571 13.5649C5.20779 13.3506 5.11038 13.039 5.07142 12.4351C5.05194 11.7922 5.03246 11.5974 5.03246 10C5.03246 8.40259 5.03246 8.18831 5.07142 7.56493C5.0909 6.98051 5.18831 6.64935 5.28571 6.43506C5.40259 6.16233 5.51948 5.94805 5.73376 5.73376C5.94805 5.51948 6.14285 5.38311 6.43506 5.28571C6.64935 5.20779 6.96103 5.11038 7.56493 5.07142C8.12987 5.05194 8.34415 5.03246 9.45454 5.03246C9.61039 5.03246 9.78571 5.03246 10 5.03246C11.6169 5.03246 11.8117 5.03246 12.4351 5.07142C13.0195 5.0909 13.3506 5.18831 13.5649 5.28571C13.8377 5.40259 14.0519 5.51948 14.2662 5.73376C14.4805 5.94805 14.6169 6.14285 14.7143 6.43506C14.7922 6.64935 14.8896 6.96103 14.9286 7.56493C14.948 8.20779 14.9675 8.40259 14.9675 10C14.9675 11.6169 14.9675 11.8117 14.9286 12.4351C14.8896 13.039 14.7922 13.3506 14.7143 13.5649ZM10 6.90259C8.28571 6.90259 6.90259 8.28571 6.90259 10C6.90259 11.7143 8.28571 13.0974 10 13.0974C11.7143 13.0974 13.0974 11.7143 13.0974 10C13.0974 8.28571 11.7143 6.90259 10 6.90259ZM13.2143 6.04545C12.8052 6.04545 12.4935 6.37662 12.4935 6.76623C12.4935 7.17532 12.8247 7.48701 13.2143 7.48701C13.6234 7.48701 13.9351 7.15584 13.9351 6.76623C13.9545 6.37662 13.6234 6.04545 13.2143 6.04545ZM10 12.0065C8.88961 12.0065 7.9935 11.1104 7.9935 10C7.9935 8.88961 8.88961 7.9935 10 7.9935C11.1104 7.9935 12.0065 8.88961 12.0065 10C12.0065 11.1104 11.1104 12.0065 10 12.0065Z" fill="#575D70"/>
</svg>
