<svg width="20" height="20" viewBox="0 0 20 20" fill="none" xmlns="http://www.w3.org/2000/svg">
<path fill-rule="evenodd" clip-rule="evenodd" d="M18.8816 2.86693C18.7992 2.79931 18.7001 2.7544 18.5943 2.73627C18.4886 2.71814 18.3798 2.72756 18.279 2.76378C15.0987 3.89051 5.31865 7.41608 1.32055 8.83388C1.19731 8.8752 1.09076 8.95425 1.01675 9.05945C0.942743 9.16464 0.905163 9.29065 0.909448 9.41843C0.913733 9.5462 0.959673 9.66896 1.04057 9.76915C1.12146 9.86934 1.23299 9.94174 1.35873 9.97501C3.15214 10.4867 5.50517 11.2046 5.50517 11.2046C5.50517 11.2046 6.60512 14.3923 7.17901 16.0167C7.21354 16.1178 7.2731 16.2092 7.3524 16.2821C7.43171 16.3551 7.52825 16.4076 7.63332 16.4348C7.74078 16.4619 7.85338 16.4624 7.96106 16.4362C8.06875 16.41 8.16817 16.3577 8.25027 16.2844C9.1685 15.4488 10.5936 14.1576 10.5936 14.1576C10.5936 14.1576 13.3004 16.0637 14.8356 17.1106C14.956 17.1931 15.095 17.2463 15.2407 17.2651C15.3864 17.2839 15.5344 17.268 15.6725 17.2188C15.8088 17.1703 15.9306 17.0888 16.0267 16.9822C16.1228 16.8756 16.1902 16.7473 16.2225 16.6086C16.8825 13.6368 18.4798 6.12033 19.0776 3.41618C19.1003 3.31578 19.0939 3.2111 19.0593 3.11405C19.0246 3.017 18.9631 2.93148 18.8816 2.86693ZM15.7634 5.5994L8.04933 12.2797L7.76724 14.8293L6.49505 10.8012C6.49505 10.8012 12.2579 7.26581 15.5052 5.27526C15.5506 5.24756 15.6048 5.23728 15.6576 5.24592C15.7104 5.25456 15.7582 5.2818 15.792 5.32248C15.8249 5.36326 15.8402 5.41474 15.8349 5.46644C15.8295 5.51814 15.8039 5.56594 15.7634 5.5994Z" fill="#575D70"/>
</svg>
