<svg width="20" height="20" viewBox="0 0 20 20" fill="none" xmlns="http://www.w3.org/2000/svg">
<path d="M18.1741 5.86708C17.2278 5.86708 16.3546 5.55358 15.6535 5.02471C14.8493 4.41843 14.2715 3.5291 14.0675 2.50407C14.017 2.25081 13.9898 1.98945 13.9872 1.72162H11.2839V9.10831L11.2806 13.1543C11.2806 14.236 10.5762 15.1532 9.59979 15.4758C9.31641 15.5694 9.01036 15.6138 8.69168 15.5963C8.2849 15.5739 7.90372 15.4512 7.5724 15.253C6.86735 14.8313 6.38933 14.0663 6.37637 13.1913C6.35597 11.8236 7.46164 10.7085 8.82835 10.7085C9.09813 10.7085 9.35722 10.7526 9.59979 10.8326V8.81359V8.08781C9.34394 8.04992 9.08355 8.03017 8.82025 8.03017C7.32432 8.03017 5.92523 8.65199 4.92514 9.77223C4.16924 10.6188 3.71583 11.6989 3.64588 12.8314C3.55422 14.3193 4.09864 15.7336 5.15444 16.7771C5.30957 16.9303 5.47247 17.0724 5.64282 17.2036C6.54802 17.9002 7.65467 18.2779 8.82025 18.2779C9.08355 18.2779 9.34394 18.2584 9.59979 18.2205C10.6886 18.0593 11.6932 17.5608 12.4861 16.7771C13.4603 15.8142 13.9985 14.5359 14.0043 13.1754L13.9904 7.13339C14.4552 7.4919 14.9633 7.78856 15.5087 8.01883C16.3569 8.3767 17.2563 8.55806 18.1819 8.55774V6.5948V5.86643C18.1825 5.86708 18.1747 5.86708 18.1741 5.86708Z" fill="#575D70"/>
</svg>
