<svg width="20" height="20" viewBox="0 0 20 20" fill="none" xmlns="http://www.w3.org/2000/svg">
<path d="M19.0909 4.44925C18.4148 4.74128 17.6943 4.93485 16.9432 5.02883C17.7159 4.57457 18.3057 3.86072 18.583 3.0003C17.8625 3.42324 17.0671 3.72198 16.2193 3.88869C15.5353 3.17149 14.5603 2.72729 13.4966 2.72729C11.433 2.72729 9.77162 4.37653 9.77162 6.39834C9.77162 6.68925 9.79662 6.96897 9.85798 7.23527C6.75912 7.08646 4.01707 5.62408 2.17503 3.39639C1.85344 3.94576 1.6648 4.57457 1.6648 5.25149C1.6648 6.52254 2.32957 7.64925 3.32048 8.30156C2.72162 8.29037 2.13412 8.11918 1.63639 7.84953C1.63639 7.86072 1.63639 7.87527 1.63639 7.88981C1.63639 9.67331 2.92844 11.1547 4.62275 11.496C4.31935 11.5776 3.98866 11.6168 3.64548 11.6168C3.40685 11.6168 3.16594 11.6034 2.9398 11.5541C3.42276 13.0076 4.79321 14.0761 6.42276 14.1108C5.15457 15.0876 3.54435 15.6761 1.80116 15.6761C1.49548 15.6761 1.2023 15.6627 0.909119 15.6258C2.56025 16.6741 4.51707 17.2727 6.6273 17.2727C13.4864 17.2727 17.2364 11.6783 17.2364 6.82911C17.2364 6.66688 17.2307 6.51023 17.2228 6.35471C17.9625 5.83778 18.5841 5.19219 19.0909 4.44925Z" fill="#575D70"/>
</svg>
