<svg width="20" height="20" viewBox="0 0 20 20" fill="none" xmlns="http://www.w3.org/2000/svg">
<path fill-rule="evenodd" clip-rule="evenodd" d="M17.2106 11.4765C17.8956 12.076 18.548 12.708 19.1652 13.3703C19.4361 13.671 19.6722 13.998 19.8695 14.3464C20.1378 14.8505 19.8983 15.4048 19.4288 15.4321H16.511C16.1635 15.4572 15.8146 15.4044 15.4925 15.2782C15.1704 15.152 14.8842 14.9556 14.6569 14.7052C14.2544 14.3101 13.8808 13.8922 13.4927 13.4789C13.3397 13.3097 13.1641 13.1604 12.9704 13.0341C12.8976 12.9718 12.8098 12.927 12.7146 12.9042C12.6195 12.8813 12.5199 12.8809 12.4245 12.9028C12.3292 12.9248 12.2408 12.9685 12.1673 13.0301C12.0938 13.0917 12.0373 13.1697 12.0026 13.2567C11.7969 13.6668 11.6906 14.115 11.6913 14.569C11.6625 15.2321 11.4564 15.4048 10.7617 15.4321C9.31487 15.5426 7.86599 15.2437 6.5983 14.5735C5.487 13.9246 4.53083 13.0634 3.79081 12.0442C2.32784 10.0607 1.09111 7.93554 0.101608 5.70446C-0.133153 5.20491 0.0393573 4.93665 0.614284 4.92302C1.56291 4.90486 2.51631 4.9094 3.46494 4.92302C3.6437 4.92658 3.81667 4.98425 3.95878 5.08712C4.10089 5.18998 4.20484 5.33304 4.25553 5.49558C4.75937 6.71243 5.40883 7.87031 6.19113 8.94685C6.38408 9.2428 6.6305 9.50424 6.91927 9.71898C6.97574 9.7748 7.04742 9.81451 7.1263 9.83429C7.20518 9.85406 7.28823 9.85323 7.36644 9.83118C7.44465 9.80913 7.51496 9.76709 7.56961 9.70966C7.62427 9.65224 7.66118 9.58122 7.67629 9.50521C7.76944 9.27367 7.826 9.03042 7.84402 8.7832C7.93112 7.93806 7.915 7.08629 7.79607 6.24464C7.77844 6.0071 7.67655 5.78209 7.50692 5.60645C7.33728 5.43081 7.10991 5.31494 6.86183 5.27738C6.58395 5.22742 6.6223 5.12755 6.76124 4.97314C6.85986 4.83663 6.99321 4.72579 7.14899 4.65116C7.30477 4.57654 7.47787 4.54035 7.65231 4.54605H10.9486C11.4661 4.64142 11.581 4.86874 11.6481 5.36829L11.6529 8.8923C11.6481 9.08758 11.7535 9.66001 12.1176 9.79171C12.2478 9.81005 12.3807 9.78971 12.4982 9.73361C12.6157 9.67751 12.7121 9.5882 12.774 9.47816C13.535 8.65547 14.1615 7.72943 14.6329 6.73071C14.8533 6.29928 15.0449 5.84494 15.2318 5.39535C15.2759 5.2435 15.375 5.11113 15.5116 5.02148C15.6482 4.93183 15.8137 4.89056 15.9792 4.90484L19.1364 4.91415C19.2309 4.91189 19.3254 4.91657 19.4192 4.9279C19.9558 5.01419 20.0995 5.23674 19.9366 5.74083C19.6351 6.50077 19.2081 7.21045 18.6717 7.84344C18.1447 8.54735 17.5794 9.22828 17.0572 9.93673C16.5781 10.5862 16.6117 10.9089 17.2106 11.4765Z" fill="#575D70"/>
</svg>
