<svg width="20" height="20" viewBox="0 0 20 20" fill="none" xmlns="http://www.w3.org/2000/svg">
<path d="M18.7163 5.62787C18.5068 4.84912 17.8927 4.23525 17.1139 4.02556C15.6911 3.63635 9.99982 3.63635 9.99982 3.63635C9.99982 3.63635 4.30878 3.63635 2.886 4.0108C2.12217 4.22027 1.49306 4.84923 1.28354 5.62787C0.909119 7.05022 0.909119 9.99999 0.909119 9.99999C0.909119 9.99999 0.909119 12.9646 1.28354 14.3721C1.49328 15.1507 2.10719 15.7646 2.88611 15.9743C4.32376 16.3636 10 16.3636 10 16.3636C10 16.3636 15.6911 16.3636 17.1139 15.9892C17.8928 15.7796 18.5068 15.1657 18.7165 14.3871C19.0909 12.9646 19.0909 10.015 19.0909 10.015C19.0909 10.015 19.1058 7.05022 18.7163 5.62787ZM8.18785 12.7251V7.27489L12.9204 9.99999L8.18785 12.7251Z" fill="#575D70"/>
</svg>
