<svg width="36" height="36" viewBox="0 0 36 36" fill="none" xmlns="http://www.w3.org/2000/svg">
<path d="M34.3553 17.2828V13.5978C34.3588 13.5543 34.3588 13.5075 34.3588 13.464C34.3448 12.7042 34.0452 11.9846 33.4911 11.4391C32.9476 10.9069 32.2089 10.6258 31.4423 10.5956C31.3203 10.5923 31.1984 10.5956 31.0764 10.5956H28.3516C28.5711 10.1873 28.7488 9.74552 28.8603 9.30373C29.0101 8.72471 29.0868 8.10219 29.0485 7.50309C28.9718 6.33501 28.6025 5.16024 27.8603 4.21976C27.6408 3.94196 27.4247 3.66751 27.1669 3.42319C26.9055 3.17552 26.6094 2.95797 26.3132 2.74711C25.8254 2.40238 25.2748 2.1614 24.7069 1.96393C23.5431 1.55895 22.1981 1.54222 21.0099 1.84344C20.4314 1.99071 19.853 2.22499 19.3443 2.52621C18.8565 2.8174 18.3861 3.16882 17.9923 3.58049C17.4348 3.00482 16.7728 2.52956 16.0201 2.21495C15.6717 2.07103 15.3302 1.93046 14.9644 1.84009C14.5915 1.74973 14.2047 1.70287 13.8249 1.66271C13.1977 1.59912 12.5566 1.6694 11.9433 1.78989C11.351 1.90369 10.7691 2.13128 10.2429 2.40572C9.72026 2.67682 9.23244 3.03829 8.81431 3.43992C8.39618 3.84155 8.01986 4.31347 7.73762 4.81216C7.45189 5.31755 7.21495 5.87983 7.09299 6.44546C6.82469 7.7039 6.92922 8.97908 7.44841 10.1639C7.51461 10.3112 7.5843 10.4551 7.65747 10.5956H4.6051C4.59813 10.5956 4.59465 10.5956 4.58768 10.5956C4.57374 10.5956 4.5598 10.5956 4.54935 10.5956C4.53889 10.5956 4.53193 10.5956 4.52496 10.5956C3.99532 10.6157 3.45175 10.7563 3.01271 11.0475C2.42035 11.4424 2.03358 11.9378 1.78618 12.5804C1.65726 12.9184 1.63635 13.2832 1.63635 13.6413V18.3103C1.63984 19.0767 1.93601 19.8198 2.50398 20.3653C2.84197 20.69 3.25313 20.9242 3.69914 21.0581V30.0044C3.69914 30.4998 3.69566 30.9951 3.69914 31.4905C3.70263 31.795 3.74096 32.1197 3.85594 32.4075C4.03017 32.8393 4.2462 33.2409 4.60858 33.5589C4.97794 33.8802 5.3438 34.0843 5.8142 34.2383C6.1278 34.3421 6.47276 34.3621 6.80378 34.3621H28.6931C29.1983 34.3621 29.7245 34.3889 30.2088 34.2149C30.6618 34.0509 31.0764 33.84 31.4144 33.4953C31.7559 33.1506 31.9615 32.7891 32.1287 32.3439C32.2298 32.0728 32.2577 31.7683 32.2611 31.4838V21.0615C32.4145 21.0146 32.5643 20.9544 32.7281 20.8874C33.2124 20.6833 33.5783 20.3051 33.8779 19.8967C34.188 19.475 34.3204 18.9529 34.3518 18.4442C34.3762 18.0593 34.3553 17.6677 34.3553 17.2828ZM19.7415 7.78757C19.7415 7.7608 19.7415 7.73402 19.7415 7.7039C19.745 7.60684 19.7485 7.50978 19.7555 7.41272C19.8008 7.17509 19.8705 6.9408 19.9541 6.70987C20.0656 6.48897 20.1945 6.27477 20.3409 6.07395C20.5046 5.89322 20.6788 5.72252 20.867 5.56857C21.0796 5.42799 21.3026 5.30081 21.5325 5.19371C21.7695 5.11004 22.0134 5.04645 22.2608 5.00294C22.5221 4.98285 22.7869 4.98285 23.0483 5.00294C23.2957 5.04645 23.5431 5.11338 23.78 5.19371C23.78 5.19371 23.78 5.19371 23.7835 5.19371C24.0135 5.30081 24.2365 5.42465 24.4455 5.56522C24.6337 5.72252 24.8114 5.88987 24.9717 6.0706C25.1145 6.26807 25.2435 6.47893 25.3515 6.69648C25.4421 6.93076 25.5083 7.17509 25.5571 7.42276C25.578 7.67043 25.578 7.92145 25.5571 8.16912C25.5118 8.4101 25.4421 8.64773 25.355 8.87532C25.2435 9.09957 25.1145 9.31042 24.9647 9.51459C24.8009 9.69867 24.6232 9.86936 24.4316 10.0267C24.226 10.1639 24.0065 10.2877 23.78 10.3915C23.78 10.3915 23.78 10.3915 23.7765 10.3915C23.773 10.3915 23.7765 10.3915 23.773 10.3915C23.5396 10.4718 23.2991 10.5354 23.0552 10.5823C22.9542 10.5889 22.8566 10.5956 22.7556 10.599C22.5221 10.6057 22.2887 10.6023 22.0587 10.6023H19.738L19.7415 7.78757ZM16.3512 25.4091V19.7562C16.3616 19.6792 16.3686 19.6022 16.3686 19.5252V13.9426C16.8773 13.9426 17.386 13.9426 17.8948 13.9426H19.6196V19.3746C19.6161 19.4215 19.6126 19.4717 19.6126 19.5185V25.2585C19.6126 25.3388 19.6126 25.4225 19.6161 25.5062H16.3512C16.3512 25.4727 16.3512 25.4426 16.3512 25.4091ZM10.4276 7.40603C10.4729 7.16839 10.5426 6.93411 10.6262 6.70317C10.7377 6.48562 10.8632 6.27477 11.0095 6.07395C11.1733 5.88987 11.3545 5.71583 11.5461 5.55852C11.7517 5.4213 11.9677 5.30081 12.1907 5.19706C12.4381 5.11004 12.6925 5.0431 12.9538 4.99624C13.2117 4.97616 13.473 4.97616 13.7309 4.99624C13.9783 5.03975 14.2222 5.10669 14.4626 5.18702C14.6961 5.29412 14.9191 5.4213 15.1316 5.56187C15.3198 5.71583 15.494 5.88652 15.6543 6.06726C15.8006 6.27142 15.933 6.48562 16.0445 6.70987C16.1282 6.93076 16.1944 7.15835 16.2397 7.38929C16.2501 7.52317 16.2571 7.6537 16.2571 7.79092V10.599H14.0828C13.8284 10.599 13.5741 10.6023 13.3197 10.599C13.1908 10.5956 13.0618 10.5923 12.9329 10.5823C12.689 10.5387 12.4486 10.4752 12.2151 10.3948C11.9817 10.2877 11.7552 10.1605 11.5426 10.0166C11.3545 9.86267 11.1802 9.69532 11.0234 9.51459C10.8771 9.31042 10.7447 9.09622 10.6332 8.87532C10.6332 8.87532 10.6332 8.87532 10.6332 8.87198C10.6332 8.87198 10.6332 8.87198 10.6332 8.86863C10.5461 8.64104 10.4799 8.40341 10.4311 8.16578C10.4032 7.90806 10.4032 7.65704 10.4276 7.40603ZM5.77587 17.8518C5.59468 17.8518 5.41349 17.8585 5.22882 17.8618C5.187 17.8652 5.14867 17.8719 5.11034 17.8819V14.0363C5.11034 14.0062 5.11034 13.9727 5.11034 13.9426H12.8772V17.8518H5.77587ZM28.714 31.0219H9.41712C8.67145 31.0219 7.92578 31.0253 7.1801 31.0253C7.18359 30.8077 7.19056 30.5935 7.19056 30.3793V21.1953H12.8737V25.6903C12.8737 25.8442 12.8702 25.9948 12.8841 26.1488C12.9469 26.8583 13.2152 27.5344 13.7622 28.0365C14.3093 28.5385 14.9922 28.8062 15.7449 28.8498C16.3686 28.8866 17.0028 28.8531 17.6265 28.8531H20.0098C20.8391 28.8531 21.6127 28.592 22.212 28.0331C22.8009 27.4876 23.097 26.7111 23.097 25.9346V21.192H28.7906V30.1015C28.7906 30.4094 28.7941 30.714 28.7941 31.0219C28.7662 31.0219 28.7418 31.0219 28.714 31.0219ZM30.7559 17.8585C30.6478 17.8551 30.5468 17.8551 30.4423 17.8551H23.1005V13.9459H30.2088C30.4283 13.9459 30.6513 13.9359 30.8743 13.9359V17.8016C30.8743 17.8216 30.8743 17.8451 30.8743 17.8652C30.836 17.8618 30.7942 17.8618 30.7559 17.8585Z" fill="#FF94C1"/>
</svg>
