<svg width="38" height="41" viewBox="0 0 38 41" fill="none" xmlns="http://www.w3.org/2000/svg">
<g clip-path="url(#clip0_2_5753)">
<path d="M37.9999 31.1074C37.9909 30.6517 37.8919 30.2406 37.6758 29.834C37.2888 29.1235 36.6091 28.6946 35.853 28.5427C35.7045 28.5069 35.547 28.4846 35.3849 28.4846C35.3444 28.4846 35.2994 28.4846 35.2589 28.4846C34.0842 28.4846 32.9185 28.4846 31.7438 28.4846C30.0515 28.4846 28.3592 28.4846 26.667 28.4846C26.667 28.4667 26.667 28.4533 26.667 28.4354C26.667 27.1218 26.667 25.8126 26.667 24.499C26.667 23.5741 26.7975 22.4794 26.2754 21.6661C25.8658 21.0227 25.2447 20.6385 24.5246 20.4999C24.3761 20.4642 24.2185 20.4419 24.061 20.4419C24.0205 20.4419 23.9755 20.4419 23.935 20.4419C22.1977 20.4419 20.4649 20.4419 18.7276 20.4419C17.5529 20.4419 16.3827 20.4419 15.208 20.4419C14.866 20.4419 14.5284 20.4419 14.1863 20.4419C14.1098 20.4419 14.0333 20.4419 13.9568 20.4419C13.2322 20.4597 12.5571 20.7234 12.0485 21.2417C11.5264 21.7778 11.3239 22.4883 11.3239 23.2166C11.3239 23.4579 11.3239 23.6947 11.3239 23.936C11.3239 24.2622 11.3239 24.5839 11.3239 24.91C10.6397 24.91 9.95562 24.91 9.276 24.91C7.31367 24.91 5.35584 24.91 3.3935 24.91C3.17297 24.91 2.94793 24.91 2.72739 24.91C1.74622 24.91 0.801063 25.3747 0.328483 26.2594C-0.0495812 26.9654 0.00442793 27.7071 0.00442793 28.4712C0.00442793 30.4327 0.00442793 32.3942 0.00442793 34.3558C0.00442793 35.875 -0.0045736 37.3941 0.00442793 38.9133C0.00442793 38.9401 0.00442793 38.9625 0.00442793 38.9893C0.00442793 40.075 0.931585 40.9999 2.02977 40.9999C3.30349 40.9999 4.58171 40.9999 5.85542 40.9999C7.88977 40.9999 9.91961 40.9999 11.954 40.9999C12.422 40.9999 12.8856 40.9999 13.3537 40.9999C13.3942 40.9999 13.4392 40.9999 13.4797 40.9955C14.7039 40.9955 15.9371 40.9955 17.1613 40.9955C19.1867 40.9955 21.2165 40.9955 23.2419 40.9955C23.71 40.9955 24.178 40.9955 24.6416 40.9955H24.6461H24.6506C25.9243 40.9955 27.2026 40.9955 28.4763 40.9955C30.5106 40.9955 32.5405 40.9955 34.5748 40.9955C35.0429 40.9955 35.5065 40.9955 35.9745 40.9955C37.0682 40.9955 37.9999 40.075 37.9999 38.9848C37.9999 37.9705 37.9999 36.9518 37.9999 35.9375C37.9999 34.4898 37.9999 33.0421 37.9999 31.5944C37.9999 31.4336 38.0044 31.2727 37.9999 31.1074ZM24.088 24.4632C24.097 24.4632 24.1105 24.4632 24.1195 24.4677C24.1105 24.4677 24.1015 24.4677 24.088 24.4632ZM4.05062 36.9741C4.05062 36.3441 4.05062 35.7141 4.05062 35.0885C4.05062 33.0332 4.05062 30.9823 4.05062 28.9269C4.77074 28.9269 5.49536 28.9269 6.21548 28.9269C7.92127 28.9269 9.62256 28.9269 11.3239 28.9269C11.3239 29.615 11.3239 30.3076 11.3239 30.9957C11.3239 32.0457 11.3239 33.0957 11.3239 34.1458C11.3239 35.0886 11.3194 36.0313 11.3194 36.9741C10.7208 36.9741 10.1221 36.9741 9.52355 36.9741C7.69624 36.9741 5.87343 36.9741 4.05062 36.9741ZM15.3835 36.9786C15.3835 35.8481 15.3835 34.7177 15.3835 33.5828C15.3835 32.0413 15.3835 30.4997 15.3835 28.9582C15.3835 27.6356 15.3835 26.3086 15.3835 24.986C15.3835 24.8117 15.3835 24.633 15.3835 24.4588C16.0317 24.4588 16.6843 24.4588 17.3369 24.4588C19.0967 24.4588 20.8655 24.4588 22.6253 24.4588C22.6253 24.5079 22.6253 24.5571 22.6253 24.6062C22.6253 25.8707 22.6253 27.1352 22.6253 28.3997C22.6253 29.0967 22.6253 29.7982 22.6253 30.4953C22.6253 31.447 22.6253 32.4032 22.6253 33.3549C22.6253 34.5613 22.6253 35.7722 22.6253 36.9786C22.0312 36.9786 21.4326 36.9786 20.8385 36.9786C19.0202 36.9786 17.2019 36.9786 15.3835 36.9786ZM26.676 36.9831C26.676 36.7016 26.676 36.4156 26.676 36.1341C26.676 34.9277 26.676 33.7213 26.676 32.5149C27.2161 32.5149 27.7516 32.5149 28.2917 32.5149C30.1821 32.5149 32.0724 32.5149 33.9627 32.5149C33.9582 32.917 33.9492 33.3236 33.9492 33.7213C33.9492 34.8071 33.9492 35.8973 33.9492 36.9831C33.3506 36.9831 32.7475 36.9831 32.1489 36.9831C30.3216 36.9831 28.4988 36.9831 26.676 36.9831Z" fill="#9EAAF8"/>
<path d="M9.86555 9.08378C11.0493 10.0489 12.2285 11.014 13.4122 11.9792C13.1376 13.1275 12.8631 14.2803 12.593 15.4286C12.539 15.652 12.4895 15.8709 12.4355 16.0944C12.2465 16.8897 12.503 17.7029 13.1601 18.2078C13.7767 18.6814 14.7264 18.8021 15.4105 18.3642C16.6077 17.6001 17.8049 16.8405 18.9976 16.0765C20.0013 16.7154 21.005 17.3588 22.0086 17.9978C22.2022 18.1184 22.3957 18.2435 22.5847 18.3642C22.8638 18.5429 23.2778 18.6367 23.6064 18.6367C24.0565 18.6367 24.4796 18.4759 24.8351 18.2033C25.4877 17.7029 25.7488 16.8897 25.5597 16.0899C25.2357 14.7182 24.9071 13.3464 24.5831 11.9747C25.5822 11.1615 26.5814 10.3483 27.5761 9.5306C27.7606 9.37868 27.9451 9.23123 28.1297 9.07931C28.2332 8.94527 28.3412 8.80675 28.4447 8.67271C28.5122 8.51185 28.5798 8.351 28.6473 8.19461C28.7688 7.75673 28.7193 7.29651 28.5437 6.88544C28.4042 6.55479 28.2062 6.30011 27.9181 6.08117C27.5401 5.79073 27.171 5.69243 26.6894 5.64775C25.2807 5.52264 23.8719 5.39307 22.4632 5.26796C22.0401 4.21794 21.6216 3.16344 21.1985 2.11342C21.113 1.89895 21.0275 1.68895 20.9419 1.47447C20.9374 1.4566 20.9284 1.4432 20.9194 1.42532C20.8699 1.26447 20.8069 1.11702 20.7394 0.99191C20.6404 0.82212 20.5009 0.656797 20.3388 0.513815C20.3343 0.509347 20.3298 0.509347 20.3298 0.504879C20.3163 0.491474 20.3028 0.482538 20.2893 0.469133C20.2713 0.455729 20.2533 0.437856 20.2353 0.424452C20.2308 0.419983 20.2218 0.415515 20.2173 0.411047C20.2038 0.397643 20.1858 0.388706 20.1723 0.375302C19.9743 0.23232 19.7537 0.120616 19.5332 0.0669974C19.4297 0.0446565 19.3262 0.0267838 19.2227 0.0178475C19.0246 -0.00896159 18.8266 -0.00449341 18.6421 0.0267838C18.408 0.0625293 18.1785 0.138488 17.9714 0.268065C17.9489 0.285938 17.9219 0.303811 17.8994 0.321684C17.7779 0.397643 17.6654 0.482538 17.5619 0.57637C17.4358 0.697011 17.3278 0.835524 17.2423 0.99191C17.1523 1.15723 17.0758 1.34936 17.0218 1.54596C16.5177 2.79705 16.0226 4.03921 15.523 5.28136C14.3528 5.3886 13.1781 5.49137 12.0079 5.5986C11.7694 5.62094 11.5353 5.63882 11.2968 5.66116C10.9412 5.69243 10.5857 5.75499 10.2751 5.93372C9.89256 6.15712 9.61801 6.49671 9.44698 6.89437C9.30295 7.23842 9.25795 7.56907 9.30746 7.93546C9.36146 8.33313 9.53249 8.81569 9.86555 9.08378ZM21.6081 9.21783C21.5496 9.26698 21.491 9.31166 21.4325 9.36081C21.248 9.51273 21.0635 9.66018 20.8789 9.81209C20.3208 10.2678 20.2038 11.1168 20.3568 11.7692C20.3974 11.93 20.4334 12.0909 20.4739 12.2517C20.3163 12.1534 20.1588 12.0507 20.0058 11.9568C19.4207 11.586 18.543 11.586 17.9624 11.9568C17.8049 12.0551 17.6519 12.1534 17.4989 12.2517C17.5349 12.0909 17.5754 11.93 17.6114 11.7692C17.7644 11.1168 17.6474 10.2678 17.0893 9.81209C16.8462 9.61549 16.6032 9.41443 16.3602 9.21783C16.5492 9.19995 16.7337 9.18655 16.9228 9.16868C17.3863 9.12846 17.7734 9.02569 18.1515 8.73526C18.525 8.4493 18.7006 8.12759 18.8761 7.68971C18.9121 7.60035 18.9481 7.51098 18.9841 7.42162C19.0201 7.51098 19.0561 7.60035 19.0921 7.69418C19.1596 7.85503 19.2272 8.01589 19.2947 8.17227C19.4207 8.40462 19.5962 8.59675 19.8168 8.73526C20.1948 9.02569 20.5639 9.12399 21.0455 9.16868C21.2345 9.18208 21.4235 9.19995 21.6081 9.21783Z" fill="#9EAAF8"/>
</g>
<defs>
<clipPath id="clip0_2_5753">
<rect width="38" height="41" fill="white"/>
</clipPath>
</defs>
</svg>
