<svg width="30" height="31" viewBox="0 0 30 31" fill="none" xmlns="http://www.w3.org/2000/svg">
<g clip-path="url(#clip0_2_5768)">
<path d="M29.9936 14.8222V11.3316C29.9968 11.2904 29.9968 11.246 29.9968 11.2048C29.984 10.4851 29.7093 9.80346 29.2014 9.28669C28.7031 8.7826 28.026 8.51629 27.3232 8.48775C27.2114 8.48458 27.0996 8.48775 26.9878 8.48775H24.49C24.6912 8.10097 24.8541 7.68248 24.9563 7.26399C25.0937 6.71551 25.164 6.12582 25.1288 5.55832C25.0585 4.45186 24.72 3.33905 24.0396 2.44817C23.8384 2.18503 23.6403 1.92506 23.4039 1.69362C23.1644 1.45902 22.8929 1.25294 22.6214 1.05321C22.1742 0.726657 21.6695 0.498389 21.1488 0.311337C20.082 -0.0722797 18.849 -0.0881316 17.7598 0.197203C17.2295 0.3367 16.6993 0.558627 16.233 0.843961C15.7858 1.11978 15.3545 1.45267 14.9936 1.84263C14.4825 1.29733 13.8756 0.847131 13.1857 0.549115C12.8663 0.412789 12.5532 0.279633 12.2178 0.194032C11.8761 0.108432 11.5215 0.0640468 11.1733 0.0260022C10.5984 -0.0342351 10.0106 0.032343 9.44846 0.146477C8.90545 0.25427 8.37201 0.469856 7.88969 0.729827C7.41056 0.986628 6.96337 1.32903 6.58006 1.70948C6.19676 2.08992 5.85179 2.53695 5.59305 3.00933C5.33113 3.48806 5.11392 4.02068 5.00213 4.55648C4.75617 5.74854 4.852 6.95646 5.32794 8.07877C5.38863 8.21827 5.45251 8.3546 5.51959 8.48775H2.72146C2.71507 8.48775 2.71188 8.48775 2.70549 8.48775C2.69272 8.48775 2.67994 8.48775 2.67036 8.48775C2.66077 8.48775 2.65439 8.48775 2.648 8.48775C2.16248 8.50678 1.66418 8.63993 1.26171 8.91576C0.718696 9.28986 0.364139 9.75908 0.137351 10.3678C0.0191652 10.688 0 11.0336 0 11.3728V15.7955C0.00319421 16.5215 0.274702 17.2253 0.795357 17.7421C1.1052 18.0496 1.48211 18.2716 1.89097 18.3984V26.8728C1.89097 27.342 1.88778 27.8112 1.89097 28.2805C1.89416 28.569 1.9293 28.8765 2.03471 29.1491C2.19442 29.5581 2.39246 29.9386 2.72466 30.2397C3.06324 30.5441 3.39864 30.7375 3.82985 30.8833C4.11733 30.9816 4.43356 31.0006 4.73701 31.0006H24.803C25.2662 31.0006 25.7485 31.026 26.1925 30.8611C26.6077 30.7058 26.9878 30.5061 27.2977 30.1795C27.6107 29.853 27.7992 29.5106 27.9525 29.0889C28.0451 28.8321 28.0707 28.5436 28.0739 28.2741V18.4015C28.2144 18.3572 28.3518 18.3001 28.5019 18.2367C28.9459 18.0433 29.2813 17.685 29.556 17.2982C29.8403 16.8988 29.9617 16.4042 29.9904 15.9223C30.0128 15.5577 29.9936 15.1868 29.9936 14.8222ZM16.5971 5.8278C16.5971 5.80244 16.5971 5.77708 16.5971 5.74854C16.6003 5.6566 16.6035 5.56466 16.6099 5.47272C16.6514 5.24762 16.7153 5.0257 16.7919 4.80694C16.8942 4.59769 17.0123 4.39479 17.1465 4.20457C17.2966 4.03337 17.4563 3.87168 17.6288 3.72584C17.8237 3.59268 18.0281 3.47221 18.2389 3.37076C18.4561 3.2915 18.6797 3.23126 18.9065 3.19004C19.1461 3.17102 19.3888 3.17102 19.6284 3.19004C19.8552 3.23126 20.082 3.29467 20.2992 3.37076C20.2992 3.37076 20.2992 3.37076 20.3024 3.37076C20.5132 3.47221 20.7176 3.58951 20.9093 3.72267C21.0818 3.87168 21.2447 4.0302 21.3916 4.2014C21.5226 4.38845 21.6407 4.58818 21.7398 4.79426C21.8228 5.01618 21.8835 5.24762 21.9282 5.48223C21.9474 5.71684 21.9474 5.95462 21.9282 6.18923C21.8867 6.41749 21.8228 6.64259 21.743 6.85818C21.6407 7.07059 21.5226 7.27033 21.3852 7.46372C21.2351 7.63809 21.0722 7.79978 20.8965 7.94879C20.708 8.07877 20.5068 8.19608 20.2992 8.29436C20.2992 8.29436 20.2992 8.29436 20.296 8.29436C20.2928 8.29436 20.296 8.29436 20.2928 8.29436C20.0788 8.37045 19.8584 8.43069 19.6348 8.47507C19.5422 8.48141 19.4527 8.48775 19.3601 8.49092C19.1461 8.49726 18.9321 8.49409 18.7212 8.49409H16.5939L16.5971 5.8278ZM13.4891 22.5199V17.1651C13.4987 17.0922 13.5051 17.0193 13.5051 16.9463V11.6581C13.9715 11.6581 14.4378 11.6581 14.9042 11.6581H16.4853V16.8037C16.4821 16.8481 16.4789 16.8956 16.4789 16.94V22.3772C16.4789 22.4533 16.4789 22.5325 16.4821 22.6118H13.4891C13.4891 22.5801 13.4891 22.5516 13.4891 22.5199ZM8.05898 5.46638C8.10051 5.24128 8.16439 5.01935 8.24105 4.8006C8.34327 4.59452 8.45826 4.39479 8.59241 4.20457C8.74254 4.0302 8.90864 3.86534 9.08432 3.71633C9.27278 3.58634 9.47082 3.47221 9.67525 3.37393C9.90204 3.2915 10.1352 3.22809 10.3748 3.1837C10.6112 3.16468 10.8507 3.16468 11.0871 3.1837C11.3139 3.22492 11.5375 3.28833 11.7579 3.36442C11.9719 3.46587 12.1763 3.58634 12.3712 3.7195C12.5436 3.86534 12.7034 4.02702 12.8503 4.19823C12.9844 4.39162 13.1058 4.59452 13.208 4.80694C13.2847 5.01618 13.3454 5.23177 13.3869 5.45053C13.3965 5.57734 13.4029 5.70099 13.4029 5.83097V8.49092H11.4097C11.1765 8.49092 10.9433 8.49409 10.7102 8.49092C10.592 8.48775 10.4738 8.48458 10.3556 8.47507C10.132 8.43386 9.91162 8.37362 9.69761 8.29753C9.4836 8.19608 9.27597 8.0756 9.08113 7.93928C8.90864 7.79344 8.74893 7.63492 8.60519 7.46372C8.47103 7.27033 8.34965 7.06742 8.24744 6.85818C8.24744 6.85818 8.24744 6.85818 8.24744 6.85501C8.24744 6.85501 8.24744 6.85501 8.24744 6.85184C8.16758 6.63625 8.10689 6.41115 8.06218 6.18606C8.03662 5.94194 8.03662 5.70416 8.05898 5.46638ZM3.79472 15.3611C3.62862 15.3611 3.46252 15.3675 3.29323 15.3707C3.2549 15.3738 3.21976 15.3802 3.18462 15.3897V11.7469C3.18462 11.7184 3.18462 11.6867 3.18462 11.6581H10.3045V15.3611H3.79472ZM24.8222 27.8366H7.13266C6.4491 27.8366 5.76554 27.8398 5.08198 27.8398C5.08518 27.6337 5.09156 27.4308 5.09156 27.2279V18.5284H10.3013V22.7862C10.3013 22.932 10.2981 23.0747 10.3109 23.2205C10.3684 23.8926 10.6143 24.5331 11.1158 25.0086C11.6173 25.4842 12.2434 25.7378 12.9333 25.779C13.5051 25.8139 14.0864 25.7822 14.6582 25.7822H16.843C17.6033 25.7822 18.3124 25.5349 18.8618 25.0054C19.4016 24.4887 19.6731 23.7531 19.6731 23.0176V18.5252H24.8924V26.9647C24.8924 27.2564 24.8956 27.5449 24.8956 27.8366C24.8701 27.8366 24.8477 27.8366 24.8222 27.8366ZM26.694 15.3675C26.595 15.3643 26.5023 15.3643 26.4065 15.3643H19.6763V11.6613H26.1925C26.3937 11.6613 26.5982 11.6518 26.8026 11.6518V15.3136C26.8026 15.3326 26.8026 15.3548 26.8026 15.3738C26.7674 15.3707 26.7291 15.3707 26.694 15.3675Z" fill="#A5E2A9"/>
</g>
<defs>
<clipPath id="clip0_2_5768">
<rect width="30" height="31" fill="white"/>
</clipPath>
</defs>
</svg>
