<svg width="31" height="34" viewBox="0 0 31 34" fill="none" xmlns="http://www.w3.org/2000/svg">
<path d="M15.5 11.0212C12.1998 11.0212 9.52993 13.6145 9.52993 16.82C9.52993 20.0255 12.1998 22.6187 15.5 22.6187C18.8003 22.6187 21.5072 20.0255 21.5072 16.82C21.5072 13.6145 18.8003 11.0212 15.5 11.0212ZM19.0598 17.8284H15.5371C15.1663 17.8284 14.8696 17.5403 14.8696 17.1801V13.2183C14.8696 12.8581 15.1663 12.57 15.5371 12.57C15.9079 12.57 16.2046 12.8581 16.2046 13.2183V16.4958H19.0598C19.4306 16.4958 19.7273 16.7839 19.7273 17.1441C19.7273 17.5043 19.4306 17.8284 19.0598 17.8284Z" fill="url(#paint0_linear_2_5747)"/>
<path d="M29.6651 7.56304L16.8349 0.359649C16.0191 -0.108571 14.9809 -0.108571 14.1651 0.359649L1.33493 7.56304C0.519139 8.03126 0 8.89567 0 9.79609V24.2029C0 25.1393 0.519139 26.0037 1.33493 26.4359L14.1651 33.6393C14.573 33.8554 15.0179 33.9995 15.5 33.9995C15.9821 33.9995 16.427 33.8914 16.8349 33.6393L29.6651 26.4359C30.4809 25.9677 31 25.1033 31 24.2029V9.79609C31 8.89567 30.4809 8.03126 29.6651 7.56304ZM15.4258 24.3469C11.1615 24.3469 7.71292 20.9974 7.71292 16.8194C7.71292 12.6774 11.1615 9.29185 15.4629 9.29185C19.7644 9.29185 23.2129 12.6414 23.2129 16.8194C23.1758 20.9974 19.7273 24.3469 15.4258 24.3469Z" fill="url(#paint1_linear_2_5747)"/>
<defs>
<linearGradient id="paint0_linear_2_5747" x1="15.5" y1="0.00848389" x2="15.5" y2="33.9995" gradientUnits="userSpaceOnUse">
<stop stop-color="#55566D"/>
<stop offset="1" stop-color="#838491"/>
</linearGradient>
<linearGradient id="paint1_linear_2_5747" x1="15.5" y1="0.00848389" x2="15.5" y2="33.9995" gradientUnits="userSpaceOnUse">
<stop stop-color="#55566D"/>
<stop offset="1" stop-color="#838491"/>
</linearGradient>
</defs>
</svg>
