<svg width="22" height="22" viewBox="0 0 22 22" fill="none" xmlns="http://www.w3.org/2000/svg">
<path d="M20.6825 5.39672L15.3175 3.49195C15.1905 3.44433 15.0635 3.4602 14.9524 3.50782C14.7778 3.58719 5.44444 6.8888 5.44444 6.8888C5.20635 6.96816 5.04762 7.19039 5.04762 7.44436V9.66659C5.04762 9.87295 5.1746 10.0476 5.36508 10.111L6.60317 10.5555C6.92064 10.6666 7.2381 10.4444 7.2381 10.111V8.25389C7.2381 7.99992 7.39683 7.77769 7.63492 7.69833L16.0635 4.77767L19.1111 5.85704L10.8413 8.76183C10.6667 8.82532 10.5238 8.99992 10.5238 9.20627V18.8571L1.95238 15.8254V6.17451L11.1587 2.92052C11.4127 2.82528 11.5397 2.55543 11.4444 2.31734C11.3492 2.06337 11.0794 1.93638 10.8413 2.03162L1.31746 5.39672C1.12698 5.46022 1 5.65069 1 5.84117V16.1587C1 16.3651 1.12698 16.5397 1.31746 16.6032L10.8413 19.9683C10.8889 19.9841 10.9524 20 11 20C11.0317 20 11.0476 20 11.0794 20H11.0952C11.1111 20 11.127 19.9841 11.1587 19.9841L20.6825 16.619C20.873 16.5555 21 16.3651 21 16.1746V5.85704C21 5.63482 20.873 5.46022 20.6825 5.39672Z" fill="#FFBD98"/>
</svg>
