<svg width="22" height="22" viewBox="0 0 22 22" fill="none" xmlns="http://www.w3.org/2000/svg">
<path fill-rule="evenodd" clip-rule="evenodd" d="M9.09785 15.0117H12.9202V7.61969H15.3229L10.9906 2L6.67709 7.61969L9.09785 7.65846V15.0117ZM13.9985 11.3683V12.284C15.851 11.3055 18.102 9.272 18.9926 6.80462C19.8824 4.34185 17.6134 3.18062 17.6134 3.18062C18.8006 6.21662 13.9985 11.3683 13.9985 11.3683ZM19.633 7.53754C17.6751 11.3332 13.9985 12.8609 13.9985 12.8609V13.7138C17.4582 12.4206 19.1701 10.7212 19.7667 9.37723C20.3607 8.036 19.633 7.53754 19.633 7.53754ZM13.9985 14.2169V14.8797C16.9293 14.4431 18.4312 13.3012 19.2095 12.5065C19.9844 11.7108 19.4375 10.8652 19.4375 10.8652C16.8427 13.7997 13.9985 14.2169 13.9985 14.2169ZM11.114 20C16.673 20 18.822 13.9132 18.822 13.9132C16.1733 15.4603 13.9985 15.4603 13.9985 15.4603C13.101 18.3597 11.114 20 11.114 20ZM12.9382 15.4908H9.09099C9.09099 15.4908 9.98849 18.6357 10.9366 18.6357C11.8778 18.6357 12.9382 15.4908 12.9382 15.4908ZM8.00148 12.284V11.3683C8.00148 11.3683 3.19939 6.21662 4.39005 3.18062C4.39005 3.18062 2.12102 4.34185 3.0108 6.80462C3.89802 9.26738 6.14476 11.3055 8.00148 12.284ZM8.00148 13.7185V12.8646C8.00148 12.8646 4.32491 11.3369 2.36704 7.54123C2.36704 7.54123 1.63927 8.04062 2.23331 9.38462C2.8265 10.7249 4.53835 12.4243 8.00148 13.7185ZM8.00148 14.2169C8.00148 14.2169 5.15726 13.7997 2.56591 10.8652C2.56591 10.8652 2.01558 11.7108 2.79393 12.5065C3.56799 13.3012 5.07411 14.4394 8.00491 14.8797V14.2169H8.00148ZM8.00148 15.4603C8.00148 15.4603 5.82674 15.4603 3.1771 13.9132C3.1771 13.9132 5.32356 20 10.886 20C10.886 20 8.89898 18.3597 8.00148 15.4603Z" fill="#FFBD98"/>
</svg>
