<svg width="20" height="20" viewBox="0 0 20 20" fill="none" xmlns="http://www.w3.org/2000/svg">
<path d="M17.0055 15.6303C16.6544 15.4488 16.0703 15.2877 15.3308 15.0835C15.0257 14.9991 14.7038 14.9105 14.385 14.8154C14.3515 14.7979 14.3163 14.7831 14.2794 14.7715L13.7063 14.5946C13.6062 14.5584 13.5082 14.5209 13.4237 14.4855L13.3866 14.4703C13.2831 14.4268 13.1834 14.3808 13.0973 14.3369C13.0871 14.3319 13.077 14.3267 13.067 14.3217C13.0306 14.3025 12.9947 14.2828 12.9597 14.2632C12.9577 14.2623 12.9394 14.2516 12.938 14.2508C12.9024 14.2298 12.868 14.2091 12.8506 14.198L12.8251 14.1814C12.7911 14.1591 12.7584 14.1371 12.7273 14.1133C12.7244 14.1111 12.7217 14.1094 12.7188 14.1074C12.6952 14.0891 12.6727 14.0699 12.6511 14.0511C12.649 14.049 12.6468 14.0468 12.6447 14.0453C12.6401 14.0409 12.6337 14.0354 12.6329 14.0346C12.6176 14.0206 12.6026 14.006 12.577 13.9791C12.5637 13.9643 12.5511 13.9488 12.5393 13.9335C12.5362 13.9296 12.5333 13.9255 12.5299 13.9215C12.5256 13.9152 12.5214 13.9082 12.5175 13.9015C12.5132 13.893 12.508 13.8823 12.5055 13.8777L11.9609 14.193L12.4788 13.8631L12.4972 13.8605C12.497 13.8583 12.4966 13.8554 12.496 13.8524L12.497 13.8515C12.4966 13.8493 12.4949 13.8417 12.4933 13.8349C12.4933 13.8341 12.4929 13.8332 12.4929 13.8323V13.4259C13.0873 12.8438 13.5252 12.0669 13.7566 11.1857C14.1945 10.8968 14.4903 10.2119 14.5217 9.32682C14.5362 8.91186 14.4872 8.52307 14.3817 8.1993C14.5561 7.73918 14.7069 7.21316 14.831 6.63151C14.8579 6.50497 14.8488 6.37276 14.8045 6.25233C14.738 6.07124 13.1445 1.81818 10.3086 1.81818C9.42644 1.81818 8.54487 2.23161 7.68651 3.04671C7.28653 3.16976 6.3304 3.54523 5.77983 4.44476C5.38276 5.09339 5.27546 5.8594 5.46085 6.72227C5.56876 7.22472 5.69304 7.61634 5.81753 7.96149C5.65017 8.32192 5.56586 8.8019 5.58451 9.32682C5.61558 10.2115 5.91136 10.8966 6.34966 11.1857C6.58041 12.0673 7.0185 12.8446 7.61339 13.4263V13.8303C7.61339 13.8303 7.61173 13.8428 7.61049 13.8517C7.61173 13.8423 7.61339 13.8334 7.61505 13.8258C7.61401 13.8304 7.61235 13.8463 7.61153 13.8504C7.61111 13.8513 7.6107 13.8526 7.61028 13.8539C7.60966 13.8578 7.60925 13.8607 7.60925 13.8607C7.60945 13.8581 7.61008 13.8561 7.61028 13.8539C7.60635 13.8629 7.59765 13.8821 7.59537 13.8879L7.59288 13.8943C7.58791 13.9037 7.58232 13.913 7.57611 13.922C7.57196 13.927 7.56761 13.9327 7.56533 13.9355C7.55456 13.9499 7.54255 13.9645 7.53509 13.973L7.97774 14.4321L7.51583 13.9931C7.50278 14.0066 7.4889 14.0208 7.47357 14.0343L7.45783 14.0487C7.43629 14.0679 7.41392 14.0867 7.3901 14.1046C7.38616 14.1076 7.38161 14.1114 7.37726 14.1148C7.34722 14.1375 7.31532 14.1591 7.27907 14.1829C7.27203 14.1873 7.26499 14.1914 7.25795 14.1962C7.23123 14.2137 7.20368 14.2303 7.16888 14.2503L7.14071 14.2665C7.11047 14.2835 7.07981 14.3005 7.03051 14.3256L7.01539 14.3341C6.92342 14.3806 6.82586 14.4253 6.71836 14.4705L5.82851 14.7833C5.4275 14.9049 5.01986 15.0096 4.62568 15.111C3.95622 15.2836 3.42741 15.4195 3.09081 15.5934C2.77659 15.7559 1.81818 16.2503 1.81818 17.5269C1.81818 17.8443 2.04437 18.1818 2.46361 18.1818L2.63615 18.1814C2.63967 18.1814 2.64319 18.1814 2.64671 18.1814H17.5604C17.9034 18.1814 18.1818 17.8886 18.1818 17.5269C18.1818 16.2396 17.3278 15.7972 17.0055 15.6303Z" fill="#FFBD98"/>
</svg>
